<?xml version="1.0" encoding="utf-8"?>
<!-- Generator: Adobe Illustrator 15.1.0, SVG Export Plug-In . SVG Version: 6.00 Build 0)  -->
<!DOCTYPE svg PUBLIC "-//W3C//DTD SVG 1.1//EN" "http://www.w3.org/Graphics/SVG/1.1/DTD/svg11.dtd">
<svg version="1.1" id="Layer_1" xmlns="http://www.w3.org/2000/svg" xmlns:xlink="http://www.w3.org/1999/xlink" x="0px" y="0px"
	 width="800px" height="800px" viewBox="0 0 800 800" enable-background="new 0 0 800 800" xml:space="preserve">
<rect fill="#71CDDD" width="800" height="800"/>
<rect y="559.778" fill="#66BB6A" width="800" height="93.582"/>
<rect y="664.185" fill="#6D4D42" width="800" height="51.243"/>
<rect y="653.36" fill="#43A047" width="800" height="21.648"/>
<rect y="715.428" fill="#2C98D4" width="800" height="84.572"/>
<g>
	<defs>
		<rect id="SVGID_1_" width="800" height="800"/>
	</defs>
	<clipPath id="SVGID_2_">
		<use xlink:href="#SVGID_1_"  overflow="visible"/>
	</clipPath>
	<path clip-path="url(#SVGID_2_)" fill="#1B87C9" d="M84.7,790.186c7.644,0,13.84-6.196,13.84-13.84H70.86
		C70.86,783.989,77.057,790.186,84.7,790.186"/>
	<path clip-path="url(#SVGID_2_)" fill="#1B87C9" d="M113.016,790.186c7.643,0,13.84-6.196,13.84-13.84h-27.68
		C99.176,783.989,105.373,790.186,113.016,790.186"/>
	<path clip-path="url(#SVGID_2_)" fill="#1B87C9" d="M127.493,776.346c0,7.644,6.196,13.841,13.84,13.841
		c7.643,0,13.839-6.197,13.839-13.841H127.493z"/>
	<path clip-path="url(#SVGID_2_)" fill="#1B87C9" d="M32.874,740.225c7.644,0,13.84-6.195,13.84-13.84h-27.68
		C19.033,734.029,25.23,740.225,32.874,740.225"/>
	<path clip-path="url(#SVGID_2_)" fill="#1B87C9" d="M61.189,740.225c7.643,0,13.84-6.195,13.84-13.84H47.35
		C47.35,734.029,53.546,740.225,61.189,740.225"/>
</g>
<polygon fill="#36C2D6" points="0,481.186 95.647,481.186 95.647,364.292 0,325.932 "/>
<rect x="72.49" y="424.628" fill="#36C2D6" width="102.442" height="56.558"/>
<rect x="292.668" y="389.187" fill="#36C2D6" width="212.688" height="91.999"/>
<polygon fill="#36C2D6" points="651.769,481.186 542.266,481.186 542.266,232.744 597.018,207.953 651.769,232.744 "/>
<rect x="609.112" y="454.353" fill="#36C2D6" width="164.863" height="26.833"/>
<rect x="691.545" y="345.343" fill="#36C2D6" width="108.455" height="135.843"/>
<polygon fill="#36C2D6" points="323.727,174.939 323.727,155.374 290.345,155.374 290.345,174.939 270.796,174.939 270.796,155.374 
	237.414,155.374 237.414,174.939 226.53,174.939 226.53,481.186 334.611,481.186 334.611,174.939 "/>
<rect x="609.113" y="389.187" fill="#36C2D6" width="58.317" height="91.999"/>
<path fill="#36C2D6" d="M444.852,174.939v-9.783h15.341v-6.566h-94.958v6.566h15.34v9.783h-21.902v306.247h108.08V174.939H444.852z
	 M389.776,165.156h45.875v9.783h-45.875V165.156z"/>
<polygon fill="#36C2D6" points="523.535,308.316 523.535,289.061 505.355,289.061 505.355,308.316 490.394,308.316 490.394,300.808 
	477.808,300.808 477.808,308.316 358.673,308.316 358.673,481.186 561.152,481.186 561.152,308.316 "/>
<polygon fill="#36C2D6" points="177.01,384.356 177.01,366.253 155.195,366.253 155.195,384.356 148,384.356 148,481.186 
	250.442,481.186 250.442,384.356 "/>
<rect x="615.445" y="323.332" fill="#FECC81" width="113.412" height="157.854"/>
<rect x="666.241" y="427.03" fill="#E0E0E0" width="54.398" height="34.971"/>
<rect x="669.2" y="427.03" fill="#80CBC4" width="48.48" height="32.299"/>
<g>
	<defs>
		<rect id="SVGID_3_" width="800" height="800"/>
	</defs>
	<clipPath id="SVGID_4_">
		<use xlink:href="#SVGID_3_"  overflow="visible"/>
	</clipPath>
	<path clip-path="url(#SVGID_4_)" fill="#FAFBFB" d="M722.158,462.001h-57.436c-0.637,0-1.152,0.516-1.152,1.153v3.765
		c0,0.637,0.516,1.152,1.152,1.152h57.436c0.637,0,1.152-0.516,1.152-1.152v-3.765C723.311,462.517,722.795,462.001,722.158,462.001
		"/>
	<rect x="666.242" y="427.03" clip-path="url(#SVGID_4_)" fill="#FAFBFB" width="9.065" height="10.928"/>
	<rect x="675.307" y="427.03" clip-path="url(#SVGID_4_)" fill="#EF5451" width="9.067" height="10.928"/>
	<rect x="684.375" y="427.03" clip-path="url(#SVGID_4_)" fill="#FAFBFB" width="9.066" height="10.928"/>
	<rect x="693.44" y="427.03" clip-path="url(#SVGID_4_)" fill="#EF5451" width="9.066" height="10.928"/>
	<rect x="702.508" y="427.03" clip-path="url(#SVGID_4_)" fill="#FAFBFB" width="9.066" height="10.928"/>
	<rect x="711.574" y="427.03" clip-path="url(#SVGID_4_)" fill="#EF5451" width="9.065" height="10.928"/>
	<path clip-path="url(#SVGID_4_)" fill="#EEEEEE" d="M666.241,437.958v0.972c0,2.504,2.03,4.533,4.533,4.533
		c2.504,0,4.533-2.029,4.533-4.533v-0.972H666.241z"/>
	<path clip-path="url(#SVGID_4_)" fill="#E63A35" d="M675.308,437.958v0.972c0,2.504,2.03,4.533,4.533,4.533
		c2.504,0,4.534-2.029,4.534-4.533v-0.972H675.308z"/>
	<path clip-path="url(#SVGID_4_)" fill="#EEEEEE" d="M684.374,437.958v0.972c0,2.504,2.03,4.533,4.533,4.533
		c2.504,0,4.533-2.029,4.533-4.533v-0.972H684.374z"/>
	<path clip-path="url(#SVGID_4_)" fill="#E63A35" d="M693.44,437.958v0.972c0,2.504,2.03,4.533,4.533,4.533
		c2.504,0,4.534-2.029,4.534-4.533v-0.972H693.44z"/>
	<path clip-path="url(#SVGID_4_)" fill="#EEEEEE" d="M702.507,437.958v0.972c0,2.504,2.029,4.533,4.533,4.533
		s4.533-2.029,4.533-4.533v-0.972H702.507z"/>
	<path clip-path="url(#SVGID_4_)" fill="#E63A35" d="M711.573,437.958v0.972c0,2.504,2.03,4.533,4.533,4.533
		c2.504,0,4.533-2.029,4.533-4.533v-0.972H711.573z"/>
	<path clip-path="url(#SVGID_4_)" fill="#43A047" d="M677.089,458.52c-0.349,0-0.684,0.053-1,0.147
		c-1.085-1.648-2.95-2.737-5.071-2.737c-3.353,0-6.072,2.718-6.072,6.071h8.662h3.481h3.48
		C680.569,460.079,679.012,458.52,677.089,458.52"/>
	<path clip-path="url(#SVGID_4_)" fill="#43A047" d="M721.639,462.005c0-2.956-2.396-5.352-5.352-5.352
		c-1.979,0-3.703,1.078-4.63,2.675c-0.333-0.134-0.695-0.21-1.077-0.21c-1.593,0-2.884,1.29-2.884,2.883h3.239
		c0,0.001-0.001,0.003-0.001,0.004H721.639z"/>
	<path clip-path="url(#SVGID_4_)" fill="#43A047" d="M699.342,458.229c-0.82,0-1.577,0.265-2.196,0.709
		c-0.967-1.383-2.569-2.288-4.384-2.288c-1.882,0-3.534,0.974-4.488,2.441c-0.273-0.081-0.563-0.126-0.863-0.126
		c-1.677,0-3.035,1.359-3.035,3.036h3.035h3.035h5.123h2.545h5.001C703.114,459.917,701.426,458.229,699.342,458.229"/>
	<rect x="623.661" y="427.03" clip-path="url(#SVGID_4_)" fill="#FAFBFB" width="34.323" height="54.155"/>
	<rect x="626.333" y="429.702" clip-path="url(#SVGID_4_)" fill="#E0E0E0" width="14.49" height="16.271"/>
	<rect x="640.823" y="429.702" clip-path="url(#SVGID_4_)" fill="#EEEEEE" width="14.489" height="16.271"/>
	<rect x="626.333" y="445.973" clip-path="url(#SVGID_4_)" fill="#EEEEEE" width="14.49" height="16.271"/>
	<rect x="640.823" y="445.973" clip-path="url(#SVGID_4_)" fill="#E0E0E0" width="14.489" height="16.271"/>
	<rect x="626.333" y="462.244" clip-path="url(#SVGID_4_)" fill="#E0E0E0" width="14.49" height="16.271"/>
	<rect x="640.823" y="462.244" clip-path="url(#SVGID_4_)" fill="#EEEEEE" width="14.489" height="16.271"/>
	<path clip-path="url(#SVGID_4_)" fill="#767676" d="M653.726,454.108c0,1.171-0.949,2.12-2.12,2.12
		c-1.172,0-2.121-0.949-2.121-2.12s0.949-2.12,2.121-2.12C652.776,451.988,653.726,452.938,653.726,454.108"/>
	<rect x="624.39" y="378.702" clip-path="url(#SVGID_4_)" fill="#FAFBFB" width="41.285" height="33.595"/>
	<rect x="628.599" y="382.911" clip-path="url(#SVGID_4_)" fill="#80CBC4" width="32.866" height="25.176"/>
	<rect x="628.599" y="382.912" clip-path="url(#SVGID_4_)" fill="#4CB6AC" width="32.866" height="16.433"/>
	<rect x="679.355" y="378.702" clip-path="url(#SVGID_4_)" fill="#FAFBFB" width="41.284" height="33.595"/>
	<rect x="683.565" y="382.911" clip-path="url(#SVGID_4_)" fill="#80CBC4" width="32.865" height="25.176"/>
	<path clip-path="url(#SVGID_4_)" fill="#4CB6AC" d="M716.431,382.912h-32.866v11.333h13.275c-0.154,0.389-0.242,0.811-0.242,1.255
		c0,1.878,1.522,3.4,3.4,3.4s3.399-1.522,3.399-3.4c0-0.444-0.088-0.866-0.242-1.255h13.275V382.912z"/>
	<rect x="624.389" y="334.301" clip-path="url(#SVGID_4_)" fill="#FAFBFB" width="28.597" height="33.594"/>
	<rect x="628.599" y="338.51" clip-path="url(#SVGID_4_)" fill="#80CBC4" width="20.178" height="25.176"/>
	<path clip-path="url(#SVGID_4_)" fill="#4CB6AC" d="M628.6,338.51v25.176h5.281v-16.415c2.969-1.794,4.958-5.041,4.958-8.761H628.6
		z"/>
	<rect x="692.044" y="334.301" clip-path="url(#SVGID_4_)" fill="#FAFBFB" width="28.596" height="33.594"/>
	<rect x="696.254" y="338.51" clip-path="url(#SVGID_4_)" fill="#80CBC4" width="20.177" height="25.176"/>
	<path clip-path="url(#SVGID_4_)" fill="#4CB6AC" d="M716.431,338.51v25.176h-5.282v-16.415c-2.968-1.794-4.958-5.041-4.958-8.761
		H716.431z"/>
	<rect x="611.113" y="314.266" clip-path="url(#SVGID_4_)" fill="#FCB64E" width="122.074" height="9.066"/>
	<rect x="657.853" y="334.301" clip-path="url(#SVGID_4_)" fill="#FAFBFB" width="28.597" height="33.594"/>
	<rect x="662.063" y="338.51" clip-path="url(#SVGID_4_)" fill="#80CBC4" width="20.177" height="25.176"/>
	<rect x="662.063" y="338.51" clip-path="url(#SVGID_4_)" fill="#4CB6AC" width="20.177" height="11.293"/>
	<rect x="698.654" y="302.519" clip-path="url(#SVGID_4_)" fill="#E0E0E0" width="18" height="11.746"/>
	<rect x="696.253" y="301.276" clip-path="url(#SVGID_4_)" fill="#BDBDBD" width="22.802" height="7.048"/>
	<rect x="492.249" y="412.297" clip-path="url(#SVGID_4_)" fill="#9CCC65" width="113.412" height="68.889"/>
	<rect x="543.046" y="427.03" clip-path="url(#SVGID_4_)" fill="#E0E0E0" width="54.399" height="34.971"/>
	<rect x="546.005" y="427.03" clip-path="url(#SVGID_4_)" fill="#80CBC4" width="48.481" height="32.299"/>
	<path clip-path="url(#SVGID_4_)" fill="#FAFBFB" d="M598.963,462.001h-57.436c-0.637,0-1.152,0.516-1.152,1.153v3.765
		c0,0.637,0.516,1.152,1.152,1.152h57.436c0.637,0,1.153-0.516,1.153-1.152v-3.765C600.116,462.517,599.6,462.001,598.963,462.001"
		/>
	<rect x="543.045" y="427.03" clip-path="url(#SVGID_4_)" fill="#FAFBFB" width="9.067" height="10.928"/>
	<rect x="552.113" y="427.03" clip-path="url(#SVGID_4_)" fill="#EF5451" width="9.065" height="10.928"/>
	<rect x="561.178" y="427.03" clip-path="url(#SVGID_4_)" fill="#FAFBFB" width="9.067" height="10.928"/>
	<rect x="570.246" y="427.03" clip-path="url(#SVGID_4_)" fill="#EF5451" width="9.066" height="10.928"/>
	<rect x="579.311" y="427.03" clip-path="url(#SVGID_4_)" fill="#FAFBFB" width="9.067" height="10.928"/>
	<rect x="588.379" y="427.03" clip-path="url(#SVGID_4_)" fill="#EF5451" width="9.066" height="10.928"/>
	<path clip-path="url(#SVGID_4_)" fill="#EEEEEE" d="M543.046,437.958v0.972c0,2.504,2.03,4.533,4.533,4.533
		c2.504,0,4.533-2.029,4.533-4.533v-0.972H543.046z"/>
	<path clip-path="url(#SVGID_4_)" fill="#E63A35" d="M552.112,437.958v0.972c0,2.504,2.03,4.533,4.533,4.533
		c2.504,0,4.533-2.029,4.533-4.533v-0.972H552.112z"/>
	<path clip-path="url(#SVGID_4_)" fill="#EEEEEE" d="M561.179,437.958v0.972c0,2.504,2.03,4.533,4.533,4.533
		c2.504,0,4.534-2.029,4.534-4.533v-0.972H561.179z"/>
	<path clip-path="url(#SVGID_4_)" fill="#E63A35" d="M570.245,437.958v0.972c0,2.504,2.03,4.533,4.533,4.533
		c2.504,0,4.533-2.029,4.533-4.533v-0.972H570.245z"/>
	<path clip-path="url(#SVGID_4_)" fill="#EEEEEE" d="M579.312,437.958v0.972c0,2.504,2.03,4.533,4.533,4.533
		c2.504,0,4.534-2.029,4.534-4.533v-0.972H579.312z"/>
	<path clip-path="url(#SVGID_4_)" fill="#E63A35" d="M588.378,437.958v0.972c0,2.504,2.029,4.533,4.533,4.533
		s4.533-2.029,4.533-4.533v-0.972H588.378z"/>
	<path clip-path="url(#SVGID_4_)" fill="#43A047" d="M553.894,458.52c-0.349,0-0.684,0.053-1,0.147
		c-1.085-1.648-2.95-2.737-5.071-2.737c-3.354,0-6.072,2.718-6.072,6.071h8.662h3.481h3.48
		C557.374,460.079,555.815,458.52,553.894,458.52"/>
	<path clip-path="url(#SVGID_4_)" fill="#43A047" d="M598.443,462.005c0-2.956-2.396-5.352-5.353-5.352
		c-1.979,0-3.702,1.078-4.629,2.675c-0.333-0.134-0.695-0.21-1.077-0.21c-1.593,0-2.884,1.29-2.884,2.883h3.239
		c0,0.001-0.001,0.003-0.001,0.004H598.443z"/>
	<path clip-path="url(#SVGID_4_)" fill="#43A047" d="M576.146,458.229c-0.82,0-1.577,0.265-2.196,0.709
		c-0.967-1.383-2.569-2.288-4.384-2.288c-1.882,0-3.534,0.974-4.488,2.441c-0.273-0.081-0.563-0.126-0.864-0.126
		c-1.676,0-3.035,1.359-3.035,3.036h3.035h3.036h5.123h2.545h5.001C579.919,459.917,578.23,458.229,576.146,458.229"/>
	<rect x="500.466" y="427.03" clip-path="url(#SVGID_4_)" fill="#FAFBFB" width="34.323" height="54.155"/>
	<rect x="503.137" y="429.702" clip-path="url(#SVGID_4_)" fill="#E0E0E0" width="14.49" height="16.271"/>
	<rect x="517.627" y="429.702" clip-path="url(#SVGID_4_)" fill="#EEEEEE" width="14.49" height="16.271"/>
	<rect x="503.137" y="445.973" clip-path="url(#SVGID_4_)" fill="#EEEEEE" width="14.49" height="16.271"/>
	<rect x="517.627" y="445.973" clip-path="url(#SVGID_4_)" fill="#E0E0E0" width="14.49" height="16.271"/>
	<rect x="503.137" y="462.244" clip-path="url(#SVGID_4_)" fill="#E0E0E0" width="14.49" height="16.271"/>
	<rect x="517.627" y="462.244" clip-path="url(#SVGID_4_)" fill="#EEEEEE" width="14.49" height="16.271"/>
	<path clip-path="url(#SVGID_4_)" fill="#767676" d="M530.53,454.108c0,1.171-0.949,2.12-2.12,2.12c-1.172,0-2.121-0.949-2.121-2.12
		s0.949-2.12,2.121-2.12C529.581,451.988,530.53,452.938,530.53,454.108"/>
	<rect x="487.918" y="403.554" clip-path="url(#SVGID_4_)" fill="#7CB342" width="122.074" height="9.066"/>
	<rect x="494.072" y="365.265" clip-path="url(#SVGID_4_)" fill="#EEEEEE" width="109.767" height="30.235"/>
	<rect x="498.663" y="395.499" clip-path="url(#SVGID_4_)" fill="#E0E0E0" width="7.124" height="8.055"/>
	<rect x="592.124" y="395.499" clip-path="url(#SVGID_4_)" fill="#E0E0E0" width="7.124" height="8.055"/>
	<rect x="492.249" y="392.12" clip-path="url(#SVGID_4_)" fill="#FAFBFB" width="113.412" height="3.38"/>
	<path clip-path="url(#SVGID_4_)" fill="#434343" d="M502.589,361.662c-2.168,0-3.926,1.758-3.926,3.926v3.279
		c0,0.704,1.758,1.275,3.926,1.275s3.926-0.571,3.926-1.275v-3.279C506.515,363.42,504.757,361.662,502.589,361.662"/>
	<path clip-path="url(#SVGID_4_)" fill="#434343" d="M548.955,361.662c-2.168,0-3.926,1.758-3.926,3.926v3.279
		c0,0.704,1.758,1.275,3.926,1.275s3.926-0.571,3.926-1.275v-3.279C552.881,363.42,551.123,361.662,548.955,361.662"/>
	<path clip-path="url(#SVGID_4_)" fill="#434343" d="M595.321,361.662c-2.168,0-3.926,1.758-3.926,3.926v3.279
		c0,0.704,1.758,1.275,3.926,1.275s3.926-0.571,3.926-1.275v-3.279C599.247,363.42,597.489,361.662,595.321,361.662"/>
	<rect x="354.968" y="412.297" clip-path="url(#SVGID_4_)" fill="#FECC81" width="113.412" height="68.889"/>
	<rect x="363.185" y="427.03" clip-path="url(#SVGID_4_)" fill="#FAFBFB" width="34.323" height="54.155"/>
	<rect x="365.856" y="429.702" clip-path="url(#SVGID_4_)" fill="#80CBC4" width="28.98" height="48.813"/>
	<path clip-path="url(#SVGID_4_)" fill="#767676" d="M393.249,454.108c0,1.171-0.949,2.12-2.12,2.12
		c-1.172,0-2.121-0.949-2.121-2.12s0.949-2.12,2.121-2.12C392.3,451.988,393.249,452.938,393.249,454.108"/>
	<path clip-path="url(#SVGID_4_)" fill="#4CB6AC" d="M387.906,443.132l-2.272,0.621l-3.929-2.242
		c0.027-0.183,0.019-0.373-0.033-0.563c-0.2-0.732-0.956-1.164-1.688-0.963c-0.733,0.2-1.165,0.956-0.964,1.688
		c0.051,0.19,0.142,0.358,0.258,0.501l-2.243,3.93l-2.272,0.621l1.582,5.787l13.143-3.592L387.906,443.132z M380.146,442.67
		c0.183,0.027,0.373,0.02,0.562-0.033c0.19-0.052,0.358-0.142,0.501-0.258l2.726,1.557l-5.345,1.461L380.146,442.67z"/>
	<rect x="407.434" y="427.03" clip-path="url(#SVGID_4_)" fill="#FAFBFB" width="52.73" height="41.042"/>
	<rect x="410.834" y="430.454" clip-path="url(#SVGID_4_)" fill="#80CBC4" width="45.93" height="34.193"/>
	<path clip-path="url(#SVGID_4_)" fill="#4CB6AC" d="M410.834,430.454v34.121h7.159v-22.247c4.021-2.431,6.72-6.832,6.72-11.874
		H410.834z"/>
	<path clip-path="url(#SVGID_4_)" fill="#4CB6AC" d="M456.764,430.454v34.121h-7.158v-22.247c-4.022-2.431-6.721-6.832-6.721-11.874
		H456.764z"/>
	<rect x="350.637" y="403.554" clip-path="url(#SVGID_4_)" fill="#FAFBFB" width="122.074" height="9.066"/>
	<rect x="379.553" y="363.362" clip-path="url(#SVGID_4_)" fill="#FAFBFB" width="93.158" height="9.066"/>
	<rect x="383.884" y="372.429" clip-path="url(#SVGID_4_)" fill="#FECC81" width="84.496" height="31.125"/>
	<rect x="433.706" y="376.475" clip-path="url(#SVGID_4_)" fill="#FAFBFB" width="28.304" height="23.032"/>
	<rect x="436.592" y="379.361" clip-path="url(#SVGID_4_)" fill="#80CBC4" width="22.532" height="17.26"/>
	<rect x="436.592" y="379.362" clip-path="url(#SVGID_4_)" fill="#4CB6AC" width="22.532" height="11.266"/>
	<rect x="390.255" y="376.475" clip-path="url(#SVGID_4_)" fill="#FAFBFB" width="28.304" height="23.032"/>
	<rect x="393.141" y="379.361" clip-path="url(#SVGID_4_)" fill="#80CBC4" width="22.532" height="17.26"/>
	<rect x="393.141" y="379.361" clip-path="url(#SVGID_4_)" fill="#4CB6AC" width="22.532" height="7.575"/>
	<rect x="384.249" y="351.616" clip-path="url(#SVGID_4_)" fill="#E0E0E0" width="18" height="11.746"/>
	<rect x="381.848" y="350.372" clip-path="url(#SVGID_4_)" fill="#BDBDBD" width="22.802" height="7.048"/>
	<rect x="219.401" y="284.643" clip-path="url(#SVGID_4_)" fill="#E0E0E0" width="113.412" height="196.542"/>
	<rect x="215.07" y="275.576" clip-path="url(#SVGID_4_)" fill="#FAFBFB" width="122.074" height="9.067"/>
	<rect x="227.982" y="334.301" clip-path="url(#SVGID_4_)" fill="#FAFBFB" width="28.596" height="33.594"/>
	<rect x="232.191" y="338.51" clip-path="url(#SVGID_4_)" fill="#4CB6AC" width="20.177" height="25.176"/>
	<rect x="261.445" y="334.301" clip-path="url(#SVGID_4_)" fill="#FAFBFB" width="28.596" height="33.594"/>
	<rect x="265.654" y="338.51" clip-path="url(#SVGID_4_)" fill="#80CBC4" width="20.177" height="25.176"/>
	<rect x="265.654" y="338.511" clip-path="url(#SVGID_4_)" fill="#4CB6AC" width="20.177" height="5.646"/>
	<rect x="261.445" y="289.9" clip-path="url(#SVGID_4_)" fill="#FAFBFB" width="28.596" height="33.594"/>
	<rect x="265.654" y="294.109" clip-path="url(#SVGID_4_)" fill="#80CBC4" width="20.177" height="25.176"/>
	<rect x="265.654" y="294.109" clip-path="url(#SVGID_4_)" fill="#4CB6AC" width="20.177" height="19.077"/>
	<rect x="227.982" y="378.702" clip-path="url(#SVGID_4_)" fill="#FAFBFB" width="28.596" height="33.595"/>
	<rect x="232.191" y="382.912" clip-path="url(#SVGID_4_)" fill="#80CBC4" width="20.177" height="25.176"/>
	<rect x="232.191" y="382.911" clip-path="url(#SVGID_4_)" fill="#4CB6AC" width="20.177" height="11.608"/>
	<rect x="295.636" y="334.301" clip-path="url(#SVGID_4_)" fill="#FAFBFB" width="28.596" height="33.594"/>
	<rect x="299.846" y="338.51" clip-path="url(#SVGID_4_)" fill="#80CBC4" width="20.177" height="25.176"/>
	<rect x="299.846" y="338.352" clip-path="url(#SVGID_4_)" fill="#4CB6AC" width="20.177" height="11.608"/>
	<rect x="295.636" y="378.702" clip-path="url(#SVGID_4_)" fill="#FAFBFB" width="28.596" height="33.595"/>
	<rect x="299.846" y="382.912" clip-path="url(#SVGID_4_)" fill="#80CBC4" width="20.177" height="25.176"/>
	<rect x="299.846" y="382.912" clip-path="url(#SVGID_4_)" fill="#4CB6AC" width="20.177" height="20.642"/>
	<rect x="295.636" y="289.9" clip-path="url(#SVGID_4_)" fill="#FAFBFB" width="28.596" height="33.594"/>
	<rect x="299.846" y="294.109" clip-path="url(#SVGID_4_)" fill="#80CBC4" width="20.177" height="25.176"/>
	<rect x="299.846" y="294.109" clip-path="url(#SVGID_4_)" fill="#4CB6AC" width="20.177" height="10.321"/>
	<rect x="227.982" y="289.9" clip-path="url(#SVGID_4_)" fill="#FAFBFB" width="28.596" height="33.594"/>
	<rect x="232.191" y="294.109" clip-path="url(#SVGID_4_)" fill="#80CBC4" width="20.177" height="25.176"/>
	<rect x="232.191" y="294.108" clip-path="url(#SVGID_4_)" fill="#4CB6AC" width="20.177" height="3.411"/>
	<path clip-path="url(#SVGID_4_)" fill="#EEEEEE" d="M276.107,408.088c-9.895,0-17.917,8.021-17.917,17.917h35.834
		C294.024,416.109,286.002,408.088,276.107,408.088"/>
	<path clip-path="url(#SVGID_4_)" fill="#BDBDBD" d="M276.107,413.838c-6.72,0-12.167,5.446-12.167,12.167h24.334
		C288.274,419.284,282.826,413.838,276.107,413.838"/>
	<rect x="252.237" y="430.512" clip-path="url(#SVGID_4_)" fill="#80CBC4" width="23.079" height="50.674"/>
	<path clip-path="url(#SVGID_4_)" fill="#767676" d="M273.667,455.882c0,1.216-0.986,2.2-2.201,2.2c-1.216,0-2.202-0.984-2.202-2.2
		s0.986-2.201,2.202-2.201C272.682,453.681,273.667,454.666,273.667,455.882"/>
	<rect x="276.899" y="430.512" clip-path="url(#SVGID_4_)" fill="#80CBC4" width="23.079" height="50.674"/>
	<path clip-path="url(#SVGID_4_)" fill="#767676" d="M278.547,455.849c0,1.217,0.986,2.201,2.201,2.201
		c1.216,0,2.201-0.984,2.201-2.201c0-1.216-0.985-2.2-2.201-2.2C279.533,453.648,278.547,454.633,278.547,455.849"/>
	<rect x="275.316" y="430.512" clip-path="url(#SVGID_4_)" fill="#4CB6AC" width="1.583" height="50.674"/>
	<rect x="248.324" y="426.379" clip-path="url(#SVGID_4_)" fill="#FAFBFB" width="55.566" height="4.133"/>
	<rect x="227.982" y="252.186" clip-path="url(#SVGID_4_)" fill="#E0E0E0" width="41.283" height="23.39"/>
	<rect x="224.624" y="247.653" clip-path="url(#SVGID_4_)" fill="#FAFBFB" width="48" height="4.533"/>
	<rect x="82.77" y="284.643" clip-path="url(#SVGID_4_)" fill="#FCB64E" width="113.412" height="196.542"/>
	<rect x="78.439" y="275.576" clip-path="url(#SVGID_4_)" fill="#FAFBFB" width="122.074" height="9.067"/>
	<rect x="125.542" y="334.301" clip-path="url(#SVGID_4_)" fill="#FAFBFB" width="28.596" height="33.594"/>
	<rect x="129.752" y="338.51" clip-path="url(#SVGID_4_)" fill="#4CB6AC" width="20.177" height="25.176"/>
	<rect x="159.005" y="334.301" clip-path="url(#SVGID_4_)" fill="#FAFBFB" width="28.596" height="33.594"/>
	<rect x="163.215" y="338.51" clip-path="url(#SVGID_4_)" fill="#80CBC4" width="20.177" height="25.176"/>
	<rect x="163.215" y="338.511" clip-path="url(#SVGID_4_)" fill="#4CB6AC" width="20.177" height="5.646"/>
	<rect x="159.005" y="289.9" clip-path="url(#SVGID_4_)" fill="#FAFBFB" width="28.596" height="33.594"/>
	<rect x="163.215" y="294.109" clip-path="url(#SVGID_4_)" fill="#80CBC4" width="20.177" height="25.176"/>
	<rect x="163.215" y="294.109" clip-path="url(#SVGID_4_)" fill="#4CB6AC" width="20.177" height="19.077"/>
	<rect x="159.005" y="378.702" clip-path="url(#SVGID_4_)" fill="#FAFBFB" width="28.596" height="33.595"/>
	<rect x="163.215" y="382.912" clip-path="url(#SVGID_4_)" fill="#80CBC4" width="20.177" height="25.176"/>
	<rect x="163.215" y="382.911" clip-path="url(#SVGID_4_)" fill="#4CB6AC" width="20.177" height="11.608"/>
	<rect x="159.005" y="423.104" clip-path="url(#SVGID_4_)" fill="#FAFBFB" width="28.596" height="33.595"/>
	<rect x="163.215" y="427.313" clip-path="url(#SVGID_4_)" fill="#80CBC4" width="20.177" height="25.177"/>
	<rect x="163.215" y="427.313" clip-path="url(#SVGID_4_)" fill="#4CB6AC" width="20.177" height="11.608"/>
	<rect x="159.005" y="467.505" clip-path="url(#SVGID_4_)" fill="#FAFBFB" width="28.596" height="13.681"/>
	<rect x="163.215" y="471.715" clip-path="url(#SVGID_4_)" fill="#80CBC4" width="20.177" height="5.262"/>
	<rect x="91.351" y="334.301" clip-path="url(#SVGID_4_)" fill="#FAFBFB" width="28.596" height="33.594"/>
	<rect x="95.56" y="338.51" clip-path="url(#SVGID_4_)" fill="#80CBC4" width="20.177" height="25.176"/>
	<rect x="95.56" y="338.352" clip-path="url(#SVGID_4_)" fill="#4CB6AC" width="20.177" height="11.608"/>
	<rect x="91.351" y="289.9" clip-path="url(#SVGID_4_)" fill="#FAFBFB" width="28.596" height="33.594"/>
	<rect x="95.56" y="294.109" clip-path="url(#SVGID_4_)" fill="#80CBC4" width="20.177" height="25.176"/>
	<rect x="95.56" y="294.109" clip-path="url(#SVGID_4_)" fill="#4CB6AC" width="20.177" height="10.321"/>
	<rect x="125.542" y="289.9" clip-path="url(#SVGID_4_)" fill="#FAFBFB" width="28.596" height="33.594"/>
	<rect x="129.752" y="294.109" clip-path="url(#SVGID_4_)" fill="#80CBC4" width="20.177" height="25.176"/>
	<rect x="129.752" y="294.108" clip-path="url(#SVGID_4_)" fill="#4CB6AC" width="20.177" height="3.411"/>
	<rect x="98.963" y="378.702" clip-path="url(#SVGID_4_)" fill="#FAFBFB" width="34.323" height="54.156"/>
	<rect x="101.634" y="381.374" clip-path="url(#SVGID_4_)" fill="#E0E0E0" width="14.49" height="16.271"/>
	<rect x="116.125" y="381.374" clip-path="url(#SVGID_4_)" fill="#EEEEEE" width="14.49" height="16.271"/>
	<rect x="101.634" y="397.645" clip-path="url(#SVGID_4_)" fill="#EEEEEE" width="14.49" height="16.271"/>
	<rect x="116.125" y="397.645" clip-path="url(#SVGID_4_)" fill="#E0E0E0" width="14.49" height="16.271"/>
	<rect x="101.634" y="413.916" clip-path="url(#SVGID_4_)" fill="#E0E0E0" width="14.49" height="16.271"/>
	<rect x="116.125" y="413.916" clip-path="url(#SVGID_4_)" fill="#EEEEEE" width="14.49" height="16.271"/>
	<path clip-path="url(#SVGID_4_)" fill="#767676" d="M129.027,405.78c0,1.171-0.949,2.12-2.12,2.12c-1.172,0-2.121-0.949-2.121-2.12
		s0.949-2.12,2.121-2.12C128.078,403.66,129.027,404.609,129.027,405.78"/>
	<rect x="86.749" y="432.858" clip-path="url(#SVGID_4_)" fill="#2C98D4" width="58.75" height="48.327"/>
	<rect x="86.749" y="432.858" clip-path="url(#SVGID_4_)" fill="#BDBDBD" width="58.75" height="12.082"/>
	<rect x="86.749" y="444.94" clip-path="url(#SVGID_4_)" fill="#E0E0E0" width="58.75" height="12.082"/>
	<rect x="86.749" y="457.022" clip-path="url(#SVGID_4_)" fill="#BDBDBD" width="58.75" height="12.081"/>
	<rect x="86.749" y="469.104" clip-path="url(#SVGID_4_)" fill="#E0E0E0" width="58.75" height="12.082"/>
	<rect x="86.749" y="424.436" clip-path="url(#SVGID_4_)" fill="#F37046" width="12.214" height="44.668"/>
	<rect x="133.37" y="424.436" clip-path="url(#SVGID_4_)" fill="#F37046" width="12.213" height="44.668"/>
	<rect x="86.749" y="469.104" clip-path="url(#SVGID_4_)" fill="#F05323" width="12.214" height="12.082"/>
	<rect x="133.37" y="469.104" clip-path="url(#SVGID_4_)" fill="#F05323" width="12.213" height="12.082"/>
	<path clip-path="url(#SVGID_4_)" fill="#FAFBFB" d="M97.376,416.817c0-2.496-2.024-4.521-4.52-4.521
		c-2.496,0-4.52,2.024-4.52,4.521c0,1.486,0.728,2.795,1.836,3.618h-1.709v4h8.786v-4h-1.71
		C96.648,419.612,97.376,418.304,97.376,416.817"/>
	<path clip-path="url(#SVGID_4_)" fill="#FAFBFB" d="M143.996,416.817c0-2.496-2.024-4.521-4.52-4.521
		c-2.497,0-4.52,2.024-4.52,4.521c0,1.486,0.728,2.795,1.836,3.618h-1.709v4h8.786v-4h-1.709
		C143.268,419.612,143.996,418.304,143.996,416.817"/>
	<rect x="164.303" y="263.83" clip-path="url(#SVGID_4_)" fill="#E0E0E0" width="18" height="11.746"/>
	<rect x="161.902" y="262.586" clip-path="url(#SVGID_4_)" fill="#BDBDBD" width="22.802" height="7.048"/>
	<rect y="481.186" clip-path="url(#SVGID_4_)" fill="#767676" width="800" height="11.951"/>
	<rect y="547.827" clip-path="url(#SVGID_4_)" fill="#767676" width="800" height="11.951"/>
	<rect y="493.137" clip-path="url(#SVGID_4_)" fill="#616262" width="800" height="5.976"/>
	<rect y="499.112" clip-path="url(#SVGID_4_)" fill="#434343" width="800" height="48.716"/>
	<rect x="19.034" y="523.291" clip-path="url(#SVGID_4_)" fill="#EEEEEE" width="44.856" height="6.333"/>
	<rect x="108.668" y="523.291" clip-path="url(#SVGID_4_)" fill="#EEEEEE" width="44.856" height="6.333"/>
	<rect x="198.303" y="523.291" clip-path="url(#SVGID_4_)" fill="#EEEEEE" width="44.856" height="6.333"/>
	<rect x="287.937" y="523.291" clip-path="url(#SVGID_4_)" fill="#EEEEEE" width="44.856" height="6.333"/>
	<rect x="377.572" y="523.291" clip-path="url(#SVGID_4_)" fill="#EEEEEE" width="44.855" height="6.333"/>
	<rect x="467.207" y="523.291" clip-path="url(#SVGID_4_)" fill="#EEEEEE" width="44.855" height="6.333"/>
	<rect x="556.841" y="523.291" clip-path="url(#SVGID_4_)" fill="#EEEEEE" width="44.856" height="6.333"/>
	<rect x="646.476" y="523.291" clip-path="url(#SVGID_4_)" fill="#EEEEEE" width="44.856" height="6.333"/>
	<rect x="736.11" y="523.291" clip-path="url(#SVGID_4_)" fill="#EEEEEE" width="44.855" height="6.333"/>
	<path clip-path="url(#SVGID_4_)" fill="#F5F5F5" d="M602.646,266.872c-4.348-11.833-15.723-20.28-29.067-20.28
		c-2.581,0-5.094,0.316-7.489,0.916c-2.185-10.853-11.771-19.026-23.268-19.026c-10.611,0-19.594,6.963-22.633,16.568
		c-4.261-6.056-11.301-10.019-19.271-10.019c-3.338,0-6.514,0.694-9.394,1.957c-0.001,0.001-0.002,0.001-0.004,0.001
		c-1.786-2.74-4.096-5.107-6.789-6.958c0.058-0.595,0.089-1.199,0.089-1.809c0-10.146-8.226-18.371-18.37-18.371
		c-7.525,0-13.989,4.526-16.828,11.002c-4.473-6.636-12.058-11.002-20.662-11.002c-13.752,0-24.9,11.148-24.9,24.9
		c0,0.123,0.009,0.244,0.011,0.367c-0.599-0.053-1.202-0.085-1.814-0.085c-11.171,0-20.228,9.057-20.228,20.228
		c0,2.84,0.588,5.542,1.644,7.995c-2.928,0.421-5.566,1.715-7.652,3.616c-2.905,2.638-4.725,6.446-4.725,10.682h5.779h23.12h86.835
		h27.777h27.811h39.629h22.294C604.541,273.801,603.872,270.203,602.646,266.872"/>
	<path clip-path="url(#SVGID_4_)" fill="#FAFBFB" d="M720.933,257.993c0-2.119,0.899-4.031,2.342-5.369
		c1.309-1.218,3.06-1.962,4.989-1.962c0.64,0,1.264,0.083,1.857,0.24c0.852-7.001,6.812-12.424,14.043-12.424
		c4.519,0,8.541,2.115,11.13,5.411c0.404,0.514,0.771,1.059,1.101,1.627c0.639-0.627,1.354-1.175,2.134-1.627
		c1.586-0.925,3.424-1.454,5.39-1.454c5.745,0,10.441,4.514,10.727,10.189h0.012c2.966,0,5.369,2.404,5.369,5.369H720.933z"/>
	<path clip-path="url(#SVGID_4_)" fill="#FAFBFB" d="M600.723,227.26c0-4.399,1.869-8.368,4.861-11.147
		c2.719-2.529,6.354-4.072,10.357-4.072c1.329,0,2.624,0.171,3.859,0.497c1.766-14.533,14.138-25.791,29.151-25.791
		c9.38,0,17.731,4.39,23.107,11.232c0.838,1.069,1.598,2.2,2.284,3.379c1.326-1.302,2.813-2.441,4.43-3.379
		c3.292-1.921,7.108-3.018,11.189-3.018c11.927,0,21.676,9.372,22.267,21.152h0.026c6.155,0,11.146,4.991,11.146,11.147H600.723z"/>
	<path clip-path="url(#SVGID_4_)" fill="#FAFBFB" d="M790.716,178.161c0-2.089-0.597-4.043-1.625-5.694
		c-1.901-3.062-5.296-5.103-9.168-5.103c-0.653,0-1.292,0.057-1.914,0.171c-0.001,0-0.001,0-0.001,0
		c0.031-0.356,0.051-0.716,0.051-1.081c0-6.465-5.241-11.706-11.706-11.706c-0.524,0-1.038,0.038-1.544,0.104
		c-2.66-5.324-8.194-8.949-14.544-8.868c-6.734,0.086-12.442,4.317-14.735,10.234c-2.392,0.971-4.378,2.73-5.638,4.956
		c-0.482-0.065-0.972-0.096-1.472-0.096c-5.853,0-10.675,4.415-11.314,10.096c-0.666-0.201-1.375-0.31-2.111-0.31
		c-1.726,0-3.307,0.6-4.56,1.603c-1.669,1.336-2.737,3.39-2.737,5.694H790.716z"/>
	<path clip-path="url(#SVGID_4_)" fill="#FFE082" d="M570.687,95.069c0,33.305-26.999,60.304-60.305,60.304
		c-33.305,0-60.304-26.999-60.304-60.304c0-33.305,26.999-60.304,60.304-60.304C543.688,34.766,570.687,61.765,570.687,95.069"/>
	<path clip-path="url(#SVGID_4_)" fill="#FAFBFB" d="M70.477,223.335c0-3.875,1.105-7.499,3.014-10.561
		c3.526-5.679,9.822-9.465,17.004-9.465c1.21,0,2.396,0.106,3.55,0.317c0.001,0,0.001,0,0.002,0c-0.06-0.66-0.096-1.327-0.096-2.004
		c0-11.991,9.721-21.711,21.712-21.711c0.972,0,1.926,0.07,2.864,0.193c4.933-9.875,15.197-16.599,26.975-16.449
		c12.49,0.159,23.075,8.007,27.33,18.982c4.436,1.8,8.12,5.063,10.456,9.193c0.893-0.122,1.803-0.179,2.729-0.179
		c10.854,0,19.799,8.189,20.985,18.726c1.235-0.374,2.551-0.577,3.916-0.577c3.201,0,6.133,1.113,8.457,2.974
		c3.095,2.478,5.077,6.288,5.077,10.561H70.477z"/>
	<path clip-path="url(#SVGID_4_)" fill="#FAFBFB" d="M504.903,167.108c0-4.156,1.766-7.906,4.593-10.531
		c2.568-2.389,6.002-3.847,9.785-3.847c1.256,0,2.479,0.162,3.646,0.469c1.668-13.73,13.356-24.366,27.541-24.366
		c8.861,0,16.752,4.148,21.83,10.612c0.791,1.009,1.511,2.078,2.158,3.192c1.253-1.23,2.657-2.306,4.186-3.192
		c3.109-1.815,6.715-2.851,10.57-2.851c11.269,0,20.479,8.853,21.037,19.983h0.024c5.815,0,10.531,4.715,10.531,10.531H504.903z"/>
	<path clip-path="url(#SVGID_4_)" fill="#FAFBFB" d="M24.819,146.1c0-2.607,1.108-4.961,2.882-6.607
		c1.611-1.5,3.766-2.415,6.14-2.415c0.787,0,1.555,0.102,2.287,0.295c1.047-8.615,8.381-15.288,17.281-15.288
		c5.56,0,10.51,2.602,13.697,6.658c0.497,0.633,0.948,1.304,1.354,2.003c0.786-0.772,1.667-1.447,2.626-2.003
		c1.952-1.139,4.213-1.789,6.633-1.789c7.07,0,12.849,5.555,13.199,12.539h0.016c3.649,0,6.607,2.958,6.607,6.607H24.819z"/>
	<path clip-path="url(#SVGID_4_)" fill="#616262" d="M339.663,144.603c0.001-0.043,0.009-0.085,0-0.129l-2.01-9.608h-9.677
		l-2.011,9.608c-0.01,0.044-0.001,0.086-0.001,0.129h-1.328l2.511,13.381h11.332l2.512-13.381H339.663z M329.004,136.13h7.621
		l1.773,8.472h-11.169L329.004,136.13z"/>
	<path clip-path="url(#SVGID_4_)" fill="#EF5451" d="M359.916,96.008c0,18.093-12.134,42.16-27.103,42.16
		c-14.968,0-27.102-24.067-27.102-42.16c0-18.093,12.134-23.361,27.102-23.361C347.782,72.647,359.916,77.915,359.916,96.008"/>
	<path clip-path="url(#SVGID_4_)" fill="#F5F5F5" d="M345.354,96.008c0,18.093-5.615,42.16-12.541,42.16
		c-6.926,0-12.541-24.067-12.541-42.16c0-18.093,5.615-23.361,12.541-23.361C339.739,72.647,345.354,77.915,345.354,96.008"/>
	<path clip-path="url(#SVGID_4_)" fill="#616262" d="M266.704,177.046c0-0.033,0.007-0.066,0-0.099l-1.543-7.377h-7.43l-1.545,7.377
		c-0.007,0.033,0,0.066,0,0.099h-1.02l1.928,10.274h8.701l1.929-10.274H266.704z M258.52,170.541h5.852l1.361,6.505h-8.576
		L258.52,170.541z"/>
	<path clip-path="url(#SVGID_4_)" fill="#2C98D4" d="M282.254,139.735c0,13.892-9.317,32.37-20.809,32.37
		c-11.493,0-20.81-18.478-20.81-32.37s9.317-17.936,20.81-17.936C272.938,121.799,282.254,125.843,282.254,139.735"/>
	<path clip-path="url(#SVGID_4_)" fill="#F5F5F5" d="M271.074,139.735c0,13.892-4.311,32.37-9.629,32.37
		c-5.318,0-9.629-18.478-9.629-32.37s4.311-17.936,9.629-17.936C266.763,121.799,271.074,125.843,271.074,139.735"/>
	<path clip-path="url(#SVGID_4_)" fill="#1B87C9" d="M195.68,764.592c7.643,0,13.84-6.196,13.84-13.84h-27.68
		C181.84,758.396,188.037,764.592,195.68,764.592"/>
	<path clip-path="url(#SVGID_4_)" fill="#1B87C9" d="M223.996,764.592c7.643,0,13.84-6.196,13.84-13.84h-27.68
		C210.156,758.396,216.353,764.592,223.996,764.592"/>
	<path clip-path="url(#SVGID_4_)" fill="#1B87C9" d="M238.472,750.752c0,7.643,6.196,13.84,13.84,13.84
		c7.643,0,13.839-6.197,13.839-13.84H238.472z"/>
	<path clip-path="url(#SVGID_4_)" fill="#1B87C9" d="M663.016,790.186c7.643,0,13.84-6.196,13.84-13.84h-27.68
		C649.176,783.989,655.373,790.186,663.016,790.186"/>
	<path clip-path="url(#SVGID_4_)" fill="#1B87C9" d="M691.332,790.186c7.643,0,13.84-6.196,13.84-13.84h-27.681
		C677.491,783.989,683.688,790.186,691.332,790.186"/>
	<path clip-path="url(#SVGID_4_)" fill="#1B87C9" d="M705.808,776.346c0,7.644,6.196,13.841,13.841,13.841
		c7.643,0,13.839-6.197,13.839-13.841H705.808z"/>
	<path clip-path="url(#SVGID_4_)" fill="#1B87C9" d="M438.552,747.145c7.644,0,13.84-6.195,13.84-13.84h-27.68
		C424.712,740.949,430.909,747.145,438.552,747.145"/>
	<path clip-path="url(#SVGID_4_)" fill="#1B87C9" d="M466.868,747.145c7.643,0,13.84-6.195,13.84-13.84h-27.68
		C453.028,740.949,459.225,747.145,466.868,747.145"/>
	<path clip-path="url(#SVGID_4_)" fill="#1B87C9" d="M495.184,747.145c7.644,0,13.841-6.195,13.841-13.84h-27.681
		C481.344,740.949,487.541,747.145,495.184,747.145"/>
	<path clip-path="url(#SVGID_4_)" fill="#1B87C9" d="M509.66,733.306c0,7.643,6.196,13.84,13.84,13.84s13.84-6.197,13.84-13.84
		H509.66z"/>
	<path clip-path="url(#SVGID_4_)" fill="#1B87C9" d="M541.851,783.564c7.644,0,13.84-6.196,13.84-13.84h-27.68
		C528.011,777.368,534.208,783.564,541.851,783.564"/>
	<path clip-path="url(#SVGID_4_)" fill="#1B87C9" d="M570.167,783.564c7.643,0,13.84-6.196,13.84-13.84h-27.68
		C556.327,777.368,562.523,783.564,570.167,783.564"/>
	<path clip-path="url(#SVGID_4_)" fill="#1B87C9" d="M738.811,743.312c7.643,0,13.84-6.196,13.84-13.84h-27.68
		C724.971,737.115,731.168,743.312,738.811,743.312"/>
	<path clip-path="url(#SVGID_4_)" fill="#1B87C9" d="M767.127,743.312c7.643,0,13.84-6.196,13.84-13.84h-27.681
		C753.286,737.115,759.483,743.312,767.127,743.312"/>
	<rect x="746.205" y="477.908" clip-path="url(#SVGID_4_)" fill="#E0E0E0" width="9.462" height="3.278"/>
	<rect x="749.871" y="432.492" clip-path="url(#SVGID_4_)" fill="#EEEEEE" width="2.129" height="45.415"/>
	<path clip-path="url(#SVGID_4_)" fill="#FFCB29" d="M756.756,432.115c0,3.214-2.605,5.82-5.82,5.82s-5.82-2.606-5.82-5.82
		c0-3.215,2.605-5.82,5.82-5.82S756.756,428.9,756.756,432.115"/>
	<path clip-path="url(#SVGID_4_)" fill="#E0E0E0" d="M750.936,424.941c-3.962,0-7.174,3.212-7.174,7.174h14.348
		C758.109,428.153,754.897,424.941,750.936,424.941"/>
	<polygon clip-path="url(#SVGID_4_)" fill="#E0E0E0" points="10.643,432.282 25.707,432.282 25.707,440.282 10.643,440.282 
		4.643,436.282 	"/>
	<polygon clip-path="url(#SVGID_4_)" fill="#E0E0E0" points="40.771,434.907 25.707,434.907 25.707,426.907 40.771,426.907 
		46.771,430.907 	"/>
	<polygon clip-path="url(#SVGID_4_)" fill="#E0E0E0" points="40.771,446.532 25.707,446.532 25.707,438.532 40.771,438.532 
		46.771,442.532 	"/>
	<rect x="20.976" y="477.908" clip-path="url(#SVGID_4_)" fill="#E0E0E0" width="9.462" height="3.278"/>
	<path clip-path="url(#SVGID_4_)" fill="#EEEEEE" d="M25.707,423.74c-0.588,0-1.064,0.478-1.064,1.064v53.103h2.128v-53.103
		C26.771,424.218,26.295,423.74,25.707,423.74"/>
	<rect x="777.244" y="477.908" clip-path="url(#SVGID_4_)" fill="#E0E0E0" width="9.462" height="3.278"/>
	<rect x="766.577" y="432.492" clip-path="url(#SVGID_4_)" fill="#E0E0E0" width="11.125" height="1.875"/>
	<path clip-path="url(#SVGID_4_)" fill="#FFCB29" d="M767.515,434.367c0,2.555,2.071,4.625,4.625,4.625
		c2.555,0,4.625-2.07,4.625-4.625H767.515z"/>
	<rect x="786.248" y="432.492" clip-path="url(#SVGID_4_)" fill="#E0E0E0" width="11.125" height="1.875"/>
	<path clip-path="url(#SVGID_4_)" fill="#FFCB29" d="M787.186,434.367c0,2.555,2.071,4.625,4.625,4.625s4.625-2.07,4.625-4.625
		H787.186z"/>
	<polygon clip-path="url(#SVGID_4_)" fill="#EEEEEE" points="790.746,422.682 783.039,422.682 780.911,422.682 773.204,422.682 
		771.075,422.682 771.075,424.811 771.075,432.492 773.204,432.492 773.204,424.811 780.911,424.811 780.911,477.907 
		783.039,477.907 783.039,424.811 790.746,424.811 790.746,432.492 792.875,432.492 792.875,424.811 792.875,422.682 	"/>
	<rect x="58.311" y="477.908" clip-path="url(#SVGID_4_)" fill="#434343" width="9.462" height="3.278"/>
	<rect x="60.988" y="432.492" clip-path="url(#SVGID_4_)" fill="#616262" width="4.108" height="45.415"/>
	<path clip-path="url(#SVGID_4_)" fill="#434343" d="M67.222,403.032h-8.36c-1.903,0-3.445,1.542-3.445,3.444v29.605
		c0,1.903,1.542,3.445,3.445,3.445h8.36c1.902,0,3.445-1.542,3.445-3.445v-29.605C70.667,404.574,69.124,403.032,67.222,403.032"/>
	<path clip-path="url(#SVGID_4_)" fill="#E63A35" d="M66.5,410.115c0,1.909-1.548,3.458-3.458,3.458
		c-1.909,0-3.458-1.549-3.458-3.458c0-1.91,1.549-3.458,3.458-3.458C64.952,406.657,66.5,408.205,66.5,410.115"/>
	<path clip-path="url(#SVGID_4_)" fill="#FFD54E" d="M66.5,421.279c0,1.91-1.548,3.458-3.458,3.458
		c-1.909,0-3.458-1.548-3.458-3.458c0-1.909,1.549-3.458,3.458-3.458C64.952,417.821,66.5,419.37,66.5,421.279"/>
	<path clip-path="url(#SVGID_4_)" fill="#9CCC65" d="M59.584,432.444c0-1.91,1.548-3.458,3.458-3.458
		c1.909,0,3.458,1.548,3.458,3.458s-1.549,3.458-3.458,3.458C61.132,435.902,59.584,434.354,59.584,432.444"/>
	<path clip-path="url(#SVGID_4_)" fill="#212121" d="M63.042,405.78c-2.394,0-4.334,1.941-4.334,4.334h0.876
		c0-1.909,1.548-3.457,3.458-3.457c1.91,0,3.458,1.548,3.458,3.457h0.876C67.375,407.722,65.436,405.78,63.042,405.78"/>
	<path clip-path="url(#SVGID_4_)" fill="#212121" d="M63.042,416.945c-2.394,0-4.334,1.941-4.334,4.334h0.876
		c0-1.909,1.548-3.457,3.458-3.457c1.91,0,3.458,1.548,3.458,3.457h0.876C67.375,418.887,65.436,416.945,63.042,416.945"/>
	<path clip-path="url(#SVGID_4_)" fill="#212121" d="M63.042,428.11c-2.394,0-4.334,1.94-4.334,4.334h0.876
		c0-1.909,1.548-3.457,3.458-3.457c1.91,0,3.458,1.548,3.458,3.457h0.876C67.375,430.051,65.436,428.11,63.042,428.11"/>
	<polygon clip-path="url(#SVGID_4_)" fill="#307D3D" points="47.35,507.4 10.231,589.745 84.469,589.745 	"/>
	<path clip-path="url(#SVGID_4_)" fill="#795649" d="M40.379,589.746v34.038c0,2.035,1.65,3.686,3.687,3.686h6.568
		c2.036,0,3.687-1.65,3.687-3.686v-34.038H40.379z"/>
	<polygon clip-path="url(#SVGID_4_)" fill="#43A047" points="47.35,488.379 20.216,548.573 74.484,548.573 	"/>
	<polygon clip-path="url(#SVGID_4_)" fill="#307D3D" points="152.667,552.479 124.967,613.93 180.367,613.93 	"/>
	<path clip-path="url(#SVGID_4_)" fill="#795649" d="M147.465,613.93v25.4c0,1.52,1.232,2.751,2.751,2.751h4.902
		c1.519,0,2.751-1.231,2.751-2.751v-25.4H147.465z"/>
	<polygon clip-path="url(#SVGID_4_)" fill="#378F43" points="152.667,538.285 132.417,583.205 172.915,583.205 	"/>
	<polygon clip-path="url(#SVGID_4_)" fill="#43A047" points="152.667,529.285 139.838,557.745 165.496,557.745 	"/>
	<polygon clip-path="url(#SVGID_4_)" fill="#307D3D" points="352.646,517.712 324.947,579.162 380.347,579.162 	"/>
	<path clip-path="url(#SVGID_4_)" fill="#795649" d="M347.445,579.161v25.401c0,1.519,1.232,2.751,2.751,2.751h4.902
		c1.519,0,2.751-1.232,2.751-2.751v-25.401H347.445z"/>
	<polygon clip-path="url(#SVGID_4_)" fill="#378F43" points="352.646,503.517 332.398,548.437 372.896,548.437 	"/>
	<polygon clip-path="url(#SVGID_4_)" fill="#43A047" points="352.647,494.517 339.818,522.977 365.476,522.977 	"/>
	<polygon clip-path="url(#SVGID_4_)" fill="#307D3D" points="530.53,554.958 502.83,616.408 558.229,616.408 	"/>
	<path clip-path="url(#SVGID_4_)" fill="#795649" d="M525.328,616.407v25.4c0,1.521,1.231,2.752,2.751,2.752h4.901
		c1.52,0,2.752-1.231,2.752-2.752v-25.4H525.328z"/>
	<polygon clip-path="url(#SVGID_4_)" fill="#378F43" points="530.53,540.763 510.281,585.683 550.778,585.683 	"/>
	<polygon clip-path="url(#SVGID_4_)" fill="#43A047" points="530.53,531.763 517.701,560.223 543.359,560.223 	"/>
	<polygon clip-path="url(#SVGID_4_)" fill="#307D3D" points="753.931,529.179 726.231,590.629 781.631,590.629 	"/>
	<path clip-path="url(#SVGID_4_)" fill="#795649" d="M748.729,590.628v25.4c0,1.52,1.231,2.752,2.751,2.752h4.901
		c1.52,0,2.751-1.232,2.751-2.752v-25.4H748.729z"/>
	<polygon clip-path="url(#SVGID_4_)" fill="#378F43" points="753.931,514.983 733.682,559.903 774.179,559.903 	"/>
	<polygon clip-path="url(#SVGID_4_)" fill="#43A047" points="753.931,505.983 741.102,534.443 766.76,534.443 	"/>
	<rect x="192.456" y="567.774" clip-path="url(#SVGID_4_)" fill="#C62828" width="12.313" height="1.521"/>
	<rect x="192.456" y="553.727" clip-path="url(#SVGID_4_)" fill="#C62828" width="12.313" height="1.522"/>
	<rect x="193.748" y="555.249" clip-path="url(#SVGID_4_)" fill="#E63A35" width="9.73" height="12.525"/>
	<path clip-path="url(#SVGID_4_)" fill="#E63A35" d="M198.612,548.102c-3.107,0-5.626,2.52-5.626,5.626h11.252
		C204.238,550.621,201.72,548.102,198.612,548.102"/>
	<rect x="192.757" y="560.297" clip-path="url(#SVGID_4_)" fill="#D32E2E" width="0.991" height="1.651"/>
	<rect x="191.837" y="559.884" clip-path="url(#SVGID_4_)" fill="#E63A35" width="0.92" height="2.478"/>
	<rect x="194.773" y="555.249" clip-path="url(#SVGID_4_)" fill="#D32E2E" width="7.678" height="12.525"/>
	<rect x="195.905" y="555.249" clip-path="url(#SVGID_4_)" fill="#E63A35" width="5.414" height="12.525"/>
	<rect x="197.639" y="555.249" clip-path="url(#SVGID_4_)" fill="#D32E2E" width="1.946" height="12.525"/>
	<rect x="645.758" y="567.774" clip-path="url(#SVGID_4_)" fill="#C62828" width="12.313" height="1.521"/>
	<rect x="645.758" y="553.727" clip-path="url(#SVGID_4_)" fill="#C62828" width="12.313" height="1.522"/>
	<rect x="647.05" y="555.249" clip-path="url(#SVGID_4_)" fill="#E63A35" width="9.73" height="12.525"/>
	<path clip-path="url(#SVGID_4_)" fill="#E63A35" d="M651.914,548.102c-3.106,0-5.626,2.52-5.626,5.626h11.252
		C657.54,550.621,655.021,548.102,651.914,548.102"/>
	<rect x="646.059" y="560.297" clip-path="url(#SVGID_4_)" fill="#D32E2E" width="0.991" height="1.651"/>
	<rect x="645.139" y="559.884" clip-path="url(#SVGID_4_)" fill="#E63A35" width="0.92" height="2.478"/>
	<rect x="648.075" y="555.249" clip-path="url(#SVGID_4_)" fill="#D32E2E" width="7.678" height="12.525"/>
	<rect x="649.207" y="555.249" clip-path="url(#SVGID_4_)" fill="#E63A35" width="5.414" height="12.525"/>
	<rect x="650.942" y="555.249" clip-path="url(#SVGID_4_)" fill="#D32E2E" width="1.945" height="12.525"/>
	<path display="none" clip-path="url(#SVGID_4_)" fill="#B6E2EB" d="M286.024,774.286v-0.257c-0.349,0.397-0.692,0.723-1.031,0.972
		c-0.339,0.251-0.706,0.442-1.102,0.571c-0.396,0.132-0.827,0.195-1.296,0.195c-0.621,0-1.196-0.132-1.725-0.395
		c-0.528-0.262-0.986-0.638-1.371-1.125c-0.388-0.488-0.68-1.06-0.879-1.719c-0.2-0.659-0.3-1.371-0.3-2.137
		c0-1.621,0.396-2.887,1.188-3.791c0.791-0.904,1.833-1.357,3.125-1.357c0.747,0,1.377,0.129,1.89,0.383
		c0.513,0.257,1.013,0.653,1.501,1.184v-3.827c0-0.532,0.105-0.935,0.318-1.206c0.211-0.273,0.514-0.408,0.907-0.408
		c0.392,0,0.694,0.125,0.906,0.375c0.213,0.251,0.319,0.618,0.319,1.106v11.436c0,0.494-0.114,0.864-0.342,1.111
		c-0.228,0.246-0.522,0.37-0.883,0.37c-0.355,0-0.648-0.129-0.879-0.385C286.14,775.125,286.024,774.76,286.024,774.286
		 M280.923,770.478c0,0.702,0.109,1.301,0.328,1.795c0.218,0.493,0.517,0.865,0.897,1.114c0.38,0.251,0.795,0.377,1.244,0.377
		c0.456,0,0.872-0.118,1.25-0.356c0.376-0.237,0.677-0.603,0.902-1.091c0.225-0.491,0.337-1.106,0.337-1.839
		c0-0.69-0.112-1.284-0.337-1.782c-0.225-0.496-0.529-0.876-0.912-1.141c-0.383-0.262-0.803-0.392-1.258-0.392
		c-0.475,0-0.899,0.134-1.273,0.403c-0.374,0.268-0.663,0.653-0.869,1.157C281.026,769.229,280.923,769.813,280.923,770.478"/>
	<path display="none" clip-path="url(#SVGID_4_)" fill="#B6E2EB" d="M297.458,771.134h-5.071c0.006,0.588,0.125,1.106,0.356,1.556
		c0.231,0.45,0.539,0.789,0.921,1.018c0.384,0.228,0.806,0.341,1.268,0.341c0.31,0,0.594-0.036,0.851-0.108
		c0.256-0.074,0.504-0.186,0.746-0.343c0.24-0.154,0.462-0.321,0.664-0.498c0.202-0.178,0.465-0.42,0.788-0.723
		c0.133-0.114,0.323-0.171,0.571-0.171c0.266,0,0.481,0.073,0.645,0.22c0.164,0.146,0.248,0.35,0.248,0.617
		c0,0.233-0.093,0.507-0.276,0.82c-0.185,0.314-0.462,0.614-0.831,0.902c-0.372,0.288-0.836,0.527-1.397,0.717
		c-0.56,0.191-1.204,0.285-1.933,0.285c-1.664,0-2.96-0.475-3.884-1.424c-0.925-0.95-1.387-2.239-1.387-3.866
		c0-0.766,0.114-1.477,0.342-2.132c0.228-0.656,0.561-1.217,0.997-1.686c0.437-0.47,0.975-0.827,1.615-1.078
		c0.639-0.25,1.349-0.374,2.128-0.374c1.012,0,1.881,0.212,2.606,0.64c0.726,0.427,1.269,0.98,1.629,1.657
		c0.36,0.677,0.542,1.369,0.542,2.069c0,0.653-0.187,1.075-0.56,1.271C298.663,771.036,298.136,771.134,297.458,771.134
		 M292.386,769.661h4.702c-0.063-0.888-0.304-1.552-0.718-1.99c-0.415-0.441-0.96-0.66-1.638-0.66c-0.646,0-1.177,0.222-1.591,0.668
		C292.727,768.126,292.476,768.787,292.386,769.661"/>
	<path display="none" clip-path="url(#SVGID_4_)" fill="#B6E2EB" d="M309.272,772.376c0,0.716-0.173,1.328-0.522,1.839
		c-0.348,0.51-0.863,0.896-1.544,1.158c-0.68,0.264-1.508,0.395-2.483,0.395c-0.931,0-1.729-0.144-2.394-0.428
		c-0.664-0.284-1.156-0.643-1.472-1.068c-0.316-0.428-0.475-0.856-0.475-1.288c0-0.285,0.101-0.528,0.305-0.729
		c0.202-0.202,0.459-0.305,0.769-0.305c0.272,0,0.48,0.067,0.626,0.199c0.146,0.133,0.286,0.321,0.418,0.561
		c0.266,0.464,0.585,0.807,0.955,1.035s0.875,0.343,1.515,0.343c0.519,0,0.945-0.116,1.278-0.348
		c0.332-0.231,0.498-0.496,0.498-0.794c0-0.456-0.172-0.787-0.518-0.996c-0.345-0.209-0.913-0.409-1.705-0.599
		c-0.893-0.221-1.619-0.455-2.18-0.699c-0.56-0.242-1.008-0.563-1.343-0.963c-0.336-0.399-0.504-0.89-0.504-1.472
		c0-0.52,0.155-1.011,0.465-1.474c0.311-0.461,0.769-0.83,1.374-1.104c0.604-0.277,1.333-0.414,2.188-0.414
		c0.671,0,1.275,0.069,1.809,0.21c0.536,0.137,0.983,0.326,1.34,0.56c0.358,0.233,0.63,0.493,0.816,0.777
		c0.187,0.286,0.28,0.564,0.28,0.837c0,0.297-0.099,0.541-0.298,0.732c-0.199,0.188-0.483,0.285-0.851,0.285
		c-0.266,0-0.492-0.076-0.679-0.23c-0.186-0.151-0.4-0.378-0.641-0.682c-0.196-0.253-0.426-0.456-0.692-0.609
		c-0.267-0.152-0.627-0.227-1.084-0.227c-0.469,0-0.857,0.099-1.168,0.3c-0.31,0.198-0.465,0.445-0.465,0.744
		c0,0.272,0.113,0.496,0.341,0.67c0.229,0.175,0.535,0.318,0.922,0.432c0.387,0.114,0.917,0.252,1.596,0.417
		c0.803,0.198,1.46,0.432,1.97,0.704c0.51,0.271,0.896,0.593,1.16,0.964C309.142,771.479,309.272,771.9,309.272,772.376"/>
	<path display="none" clip-path="url(#SVGID_4_)" fill="#B6E2EB" d="M311.921,764.019c-0.36,0-0.669-0.11-0.925-0.333
		c-0.257-0.22-0.385-0.534-0.385-0.939c0-0.368,0.131-0.669,0.394-0.907c0.263-0.239,0.569-0.357,0.916-0.357
		c0.336,0,0.634,0.108,0.893,0.323c0.26,0.216,0.39,0.529,0.39,0.941c0,0.398-0.127,0.711-0.381,0.935
		C312.57,763.906,312.269,764.019,311.921,764.019 M313.204,766.697v7.492c0,0.521-0.124,0.913-0.371,1.18
		c-0.247,0.266-0.56,0.397-0.94,0.397s-0.689-0.135-0.926-0.408c-0.238-0.271-0.356-0.661-0.356-1.169v-7.418
		c0-0.511,0.118-0.897,0.356-1.157c0.237-0.261,0.546-0.391,0.926-0.391s0.693,0.13,0.94,0.391
		C313.08,765.874,313.204,766.234,313.204,766.697"/>
	<path display="none" clip-path="url(#SVGID_4_)" fill="#B6E2EB" d="M324.563,767.125v7.53c0,0.861-0.093,1.604-0.277,2.225
		c-0.182,0.619-0.477,1.132-0.883,1.538c-0.405,0.403-0.935,0.706-1.59,0.9c-0.655,0.197-1.471,0.295-2.446,0.295
		c-0.893,0-1.691-0.125-2.394-0.375c-0.702-0.251-1.243-0.572-1.624-0.969c-0.379-0.395-0.57-0.802-0.57-1.22
		c0-0.317,0.108-0.576,0.324-0.774c0.215-0.199,0.475-0.3,0.778-0.3c0.38,0,0.712,0.168,0.998,0.503
		c0.138,0.171,0.282,0.345,0.431,0.52s0.315,0.322,0.494,0.446c0.181,0.122,0.398,0.215,0.651,0.275
		c0.253,0.058,0.545,0.089,0.874,0.089c0.671,0,1.192-0.092,1.563-0.28c0.37-0.186,0.63-0.447,0.779-0.783
		c0.149-0.334,0.236-0.693,0.261-1.077c0.025-0.384,0.044-0.999,0.057-1.85c-0.4,0.56-0.859,0.984-1.383,1.275
		c-0.522,0.291-1.144,0.436-1.866,0.436c-0.867,0-1.625-0.222-2.275-0.665c-0.648-0.442-1.147-1.063-1.495-1.86
		c-0.349-0.799-0.522-1.719-0.522-2.765c0-0.777,0.105-1.481,0.317-2.107c0.213-0.628,0.515-1.157,0.908-1.587
		c0.392-0.432,0.845-0.755,1.357-0.975c0.513-0.218,1.077-0.326,1.691-0.326c0.734,0,1.371,0.142,1.91,0.422
		c0.537,0.282,1.038,0.724,1.5,1.326v-0.354c0-0.449,0.11-0.796,0.332-1.044c0.222-0.246,0.507-0.371,0.856-0.371
		c0.5,0,0.832,0.164,0.996,0.49C324.48,766.04,324.563,766.511,324.563,767.125 M317.05,770.411c0,1.051,0.229,1.846,0.688,2.384
		c0.459,0.539,1.053,0.807,1.781,0.807c0.43,0,0.837-0.116,1.22-0.346c0.384-0.232,0.695-0.58,0.936-1.045
		c0.24-0.466,0.361-1.03,0.361-1.696c0-1.056-0.232-1.88-0.698-2.468c-0.466-0.589-1.078-0.884-1.838-0.884
		c-0.742,0-1.335,0.281-1.781,0.846C317.273,768.57,317.05,769.373,317.05,770.411"/>
	<path display="none" clip-path="url(#SVGID_4_)" fill="#B6E2EB" d="M328.684,766.659v0.313c0.455-0.602,0.954-1.043,1.496-1.326
		c0.541-0.281,1.163-0.423,1.866-0.423c0.684,0,1.295,0.15,1.833,0.448c0.538,0.298,0.941,0.719,1.206,1.261
		c0.172,0.318,0.282,0.661,0.332,1.027c0.051,0.368,0.078,0.836,0.078,1.405v4.824c0,0.521-0.12,0.913-0.357,1.18
		c-0.238,0.266-0.546,0.397-0.926,0.397c-0.387,0-0.7-0.135-0.941-0.408c-0.241-0.271-0.36-0.662-0.36-1.169v-4.32
		c0-0.854-0.12-1.51-0.357-1.962c-0.238-0.451-0.71-0.68-1.42-0.68c-0.462,0-0.883,0.138-1.263,0.413
		c-0.38,0.277-0.659,0.656-0.836,1.136c-0.126,0.388-0.19,1.108-0.19,2.165v3.248c0,0.526-0.122,0.921-0.365,1.185
		c-0.244,0.263-0.559,0.393-0.945,0.393c-0.374,0-0.681-0.135-0.922-0.408c-0.24-0.271-0.361-0.662-0.361-1.169v-7.493
		c0-0.493,0.108-0.862,0.323-1.106c0.216-0.243,0.51-0.366,0.883-0.366c0.229,0,0.434,0.054,0.619,0.163
		c0.182,0.108,0.33,0.269,0.441,0.483C328.629,766.086,328.684,766.349,328.684,766.659"/>
	<path display="none" clip-path="url(#SVGID_4_)" fill="#B6E2EB" d="M344.458,771.134h-5.071c0.007,0.588,0.125,1.106,0.357,1.556
		c0.23,0.45,0.537,0.789,0.921,1.018c0.382,0.228,0.805,0.341,1.267,0.341c0.31,0,0.594-0.036,0.851-0.108
		c0.255-0.074,0.504-0.186,0.746-0.343c0.239-0.154,0.461-0.321,0.665-0.498c0.201-0.178,0.464-0.42,0.787-0.723
		c0.133-0.114,0.323-0.171,0.57-0.171c0.266,0,0.482,0.073,0.646,0.22c0.165,0.146,0.247,0.35,0.247,0.617
		c0,0.233-0.092,0.507-0.276,0.82c-0.184,0.314-0.461,0.614-0.831,0.902c-0.371,0.288-0.835,0.527-1.396,0.717
		c-0.56,0.191-1.205,0.285-1.933,0.285c-1.665,0-2.96-0.475-3.885-1.424c-0.924-0.95-1.386-2.239-1.386-3.866
		c0-0.766,0.114-1.477,0.341-2.132c0.229-0.656,0.562-1.217,0.999-1.686c0.436-0.47,0.975-0.827,1.614-1.078
		c0.639-0.25,1.349-0.374,2.128-0.374c1.012,0,1.88,0.212,2.606,0.64c0.725,0.427,1.268,0.98,1.63,1.657
		c0.36,0.677,0.541,1.369,0.541,2.069c0,0.653-0.186,1.075-0.561,1.271C345.662,771.036,345.137,771.134,344.458,771.134
		 M339.387,769.661h4.701c-0.063-0.888-0.302-1.552-0.717-1.99c-0.415-0.441-0.961-0.66-1.638-0.66
		c-0.646,0-1.177,0.222-1.592,0.668C339.726,768.126,339.476,768.787,339.387,769.661"/>
	<path display="none" clip-path="url(#SVGID_4_)" fill="#B6E2EB" d="M355.028,774.286v-0.257c-0.349,0.397-0.692,0.723-1.031,0.972
		c-0.339,0.251-0.705,0.442-1.101,0.571c-0.395,0.132-0.828,0.195-1.296,0.195c-0.622,0-1.196-0.132-1.724-0.395
		c-0.529-0.262-0.986-0.638-1.373-1.125c-0.386-0.488-0.679-1.06-0.878-1.719c-0.2-0.659-0.299-1.371-0.299-2.137
		c0-1.621,0.395-2.887,1.187-3.791c0.791-0.904,1.833-1.357,3.125-1.357c0.747,0,1.377,0.129,1.89,0.383
		c0.512,0.257,1.013,0.653,1.5,1.184v-3.827c0-0.532,0.106-0.935,0.319-1.206c0.211-0.273,0.514-0.408,0.907-0.408
		c0.392,0,0.694,0.125,0.907,0.375c0.211,0.251,0.318,0.618,0.318,1.106v11.436c0,0.494-0.114,0.864-0.342,1.111
		c-0.228,0.246-0.522,0.37-0.883,0.37c-0.355,0-0.648-0.129-0.879-0.385C355.144,775.125,355.028,774.76,355.028,774.286
		 M349.928,770.478c0,0.702,0.108,1.301,0.327,1.795c0.219,0.493,0.518,0.865,0.899,1.114c0.379,0.251,0.794,0.377,1.243,0.377
		c0.456,0,0.873-0.118,1.249-0.356c0.377-0.237,0.678-0.603,0.902-1.091c0.225-0.491,0.338-1.106,0.338-1.839
		c0-0.69-0.113-1.284-0.338-1.782c-0.224-0.496-0.528-0.876-0.912-1.141c-0.383-0.262-0.802-0.392-1.258-0.392
		c-0.474,0-0.899,0.134-1.273,0.403c-0.373,0.268-0.663,0.653-0.869,1.157C350.03,769.229,349.928,769.813,349.928,770.478"/>
	<path display="none" clip-path="url(#SVGID_4_)" fill="#B6E2EB" d="M365.625,762.851v3.96c0.488-0.506,0.985-0.896,1.492-1.163
		c0.506-0.27,1.133-0.403,1.881-0.403c0.861,0,1.615,0.204,2.265,0.611c0.648,0.41,1.152,1.002,1.51,1.776
		c0.357,0.775,0.537,1.696,0.537,2.761c0,0.784-0.1,1.504-0.299,2.159c-0.2,0.655-0.49,1.225-0.869,1.704
		c-0.381,0.482-0.841,0.855-1.382,1.117c-0.542,0.263-1.139,0.395-1.791,0.395c-0.399,0-0.775-0.048-1.125-0.144
		c-0.352-0.094-0.652-0.218-0.898-0.375c-0.246-0.154-0.457-0.313-0.632-0.479c-0.174-0.164-0.404-0.412-0.689-0.741v0.257
		c0,0.487-0.117,0.856-0.351,1.107c-0.234,0.25-0.531,0.374-0.893,0.374c-0.367,0-0.66-0.124-0.878-0.374
		c-0.219-0.251-0.328-0.62-0.328-1.107v-11.323c0-0.524,0.106-0.923,0.318-1.19c0.212-0.27,0.509-0.403,0.888-0.403
		c0.4,0,0.706,0.127,0.922,0.383C365.519,762.01,365.625,762.374,365.625,762.851 M365.75,770.553c0,1.032,0.236,1.824,0.708,2.379
		c0.471,0.555,1.09,0.833,1.856,0.833c0.652,0,1.215-0.283,1.686-0.852c0.472-0.566,0.708-1.378,0.708-2.436
		c0-0.685-0.098-1.274-0.294-1.768c-0.197-0.494-0.475-0.876-0.836-1.144c-0.361-0.27-0.783-0.404-1.264-0.404
		c-0.493,0-0.934,0.135-1.32,0.404c-0.386,0.268-0.69,0.658-0.912,1.168C365.86,769.243,365.75,769.851,365.75,770.553"/>
	<path display="none" clip-path="url(#SVGID_4_)" fill="#B6E2EB" d="M376.672,776.091l0.237-0.58l-3.191-8.035
		c-0.196-0.461-0.295-0.798-0.295-1.007c0-0.223,0.058-0.428,0.171-0.616c0.115-0.191,0.271-0.343,0.47-0.456
		c0.2-0.116,0.407-0.172,0.623-0.172c0.373,0,0.654,0.119,0.845,0.355c0.191,0.238,0.358,0.577,0.503,1.021l2.195,6.383l2.08-5.937
		c0.164-0.479,0.313-0.857,0.446-1.131c0.133-0.271,0.273-0.456,0.422-0.55c0.149-0.095,0.36-0.143,0.632-0.143
		c0.197,0,0.385,0.052,0.566,0.157c0.18,0.104,0.319,0.244,0.417,0.423c0.098,0.177,0.148,0.362,0.148,0.559
		c-0.026,0.121-0.066,0.291-0.124,0.514c-0.058,0.222-0.126,0.447-0.209,0.675l-3.381,8.852c-0.292,0.779-0.577,1.389-0.855,1.833
		c-0.279,0.443-0.647,0.785-1.107,1.021c-0.459,0.237-1.078,0.355-1.857,0.355c-0.759,0-1.329-0.082-1.708-0.246
		c-0.382-0.166-0.571-0.466-0.571-0.902c0-0.298,0.09-0.527,0.271-0.688c0.18-0.162,0.448-0.244,0.802-0.244
		c0.139,0,0.276,0.021,0.409,0.06c0.164,0.036,0.307,0.057,0.427,0.057c0.297,0,0.532-0.044,0.703-0.134
		c0.171-0.088,0.324-0.241,0.461-0.461C376.337,776.836,376.495,776.515,376.672,776.091"/>
	<path display="none" clip-path="url(#SVGID_4_)" fill="#B6E2EB" d="M414.234,765.449h0.618v-0.778c0-0.815,0.101-1.457,0.308-1.938
		c0.204-0.478,0.555-0.825,1.047-1.045c0.49-0.217,1.163-0.326,2.016-0.326c1.521,0,2.273,0.367,2.273,1.114
		c0,0.239-0.079,0.445-0.24,0.616c-0.155,0.169-0.343,0.255-0.558,0.255c-0.101,0-0.278-0.018-0.527-0.059
		c-0.238-0.033-0.453-0.057-0.624-0.057c-0.467,0-0.766,0.142-0.905,0.415c-0.127,0.276-0.194,0.669-0.194,1.186v0.617h0.633
		c0.99,0,1.48,0.297,1.48,0.896c0,0.418-0.127,0.69-0.392,0.804c-0.262,0.114-0.624,0.171-1.089,0.171h-0.633v6.871
		c0,0.512-0.12,0.901-0.369,1.168c-0.241,0.273-0.555,0.406-0.943,0.406c-0.367,0-0.671-0.133-0.918-0.406
		c-0.244-0.267-0.364-0.656-0.364-1.168v-6.871h-0.714c-0.388,0-0.682-0.084-0.893-0.262c-0.209-0.171-0.315-0.398-0.315-0.677
		C412.931,765.757,413.366,765.449,414.234,765.449"/>
	<path display="none" clip-path="url(#SVGID_4_)" fill="#B6E2EB" d="M422.724,772.023v2.168c0,0.522-0.133,0.919-0.374,1.18
		c-0.246,0.265-0.559,0.394-0.937,0.394c-0.382,0-0.688-0.131-0.927-0.399c-0.237-0.265-0.361-0.656-0.361-1.174v-7.224
		c0-1.166,0.42-1.749,1.261-1.749c0.435,0,0.743,0.135,0.935,0.409c0.188,0.273,0.295,0.673,0.316,1.208
		c0.309-0.535,0.624-0.935,0.948-1.208c0.332-0.274,0.763-0.409,1.311-0.409c0.549,0,1.071,0.135,1.585,0.409
		c0.515,0.273,0.771,0.636,0.771,1.084c0,0.315-0.11,0.581-0.326,0.782c-0.22,0.209-0.454,0.311-0.706,0.311
		c-0.099,0-0.331-0.062-0.691-0.179c-0.365-0.114-0.689-0.173-0.963-0.173c-0.381,0-0.693,0.102-0.933,0.298
		c-0.242,0.205-0.43,0.497-0.563,0.886c-0.129,0.396-0.22,0.866-0.273,1.405C422.746,770.584,422.724,771.245,422.724,772.023"/>
	<path display="none" clip-path="url(#SVGID_4_)" fill="#B6E2EB" d="M434.645,771.131h-5.074c0.01,0.588,0.124,1.11,0.354,1.558
		c0.236,0.447,0.541,0.786,0.925,1.018c0.385,0.227,0.804,0.34,1.27,0.34c0.31,0,0.593-0.034,0.849-0.112
		c0.254-0.068,0.505-0.185,0.746-0.34c0.242-0.153,0.459-0.319,0.664-0.5c0.202-0.175,0.466-0.417,0.79-0.719
		c0.134-0.114,0.324-0.174,0.567-0.174c0.27,0,0.481,0.073,0.649,0.222c0.166,0.146,0.244,0.35,0.244,0.617
		c0,0.234-0.089,0.508-0.269,0.818c-0.188,0.318-0.463,0.616-0.836,0.906c-0.374,0.286-0.839,0.528-1.396,0.714
		c-0.561,0.191-1.206,0.286-1.933,0.286c-1.671,0-2.964-0.472-3.887-1.422c-0.924-0.952-1.391-2.242-1.391-3.868
		c0-0.766,0.117-1.478,0.347-2.134c0.226-0.659,0.559-1.216,0.999-1.688c0.437-0.471,0.97-0.827,1.613-1.077
		c0.637-0.249,1.346-0.374,2.128-0.374c1.01,0,1.88,0.214,2.605,0.645c0.725,0.423,1.273,0.978,1.63,1.655
		c0.36,0.68,0.542,1.368,0.542,2.074c0,0.647-0.189,1.069-0.563,1.266C435.847,771.034,435.323,771.131,434.645,771.131
		 M429.57,769.656h4.701c-0.062-0.886-0.298-1.551-0.714-1.986c-0.418-0.443-0.959-0.66-1.64-0.66c-0.646,0-1.177,0.219-1.592,0.668
		C429.912,768.125,429.658,768.783,429.57,769.656"/>
	<path display="none" clip-path="url(#SVGID_4_)" fill="#B6E2EB" d="M445.432,771.131h-5.072c0.006,0.588,0.125,1.11,0.354,1.558
		c0.232,0.447,0.539,0.786,0.921,1.018c0.383,0.227,0.806,0.34,1.272,0.34c0.307,0,0.593-0.034,0.845-0.112
		c0.258-0.068,0.505-0.185,0.75-0.34c0.242-0.153,0.46-0.319,0.664-0.5c0.199-0.175,0.464-0.417,0.788-0.719
		c0.135-0.114,0.326-0.174,0.567-0.174c0.27,0,0.484,0.073,0.65,0.222c0.166,0.146,0.241,0.35,0.241,0.617
		c0,0.234-0.087,0.508-0.274,0.818c-0.176,0.318-0.455,0.616-0.83,0.906c-0.37,0.286-0.84,0.528-1.395,0.714
		c-0.559,0.191-1.208,0.286-1.936,0.286c-1.667,0-2.959-0.472-3.887-1.422c-0.923-0.952-1.388-2.242-1.388-3.868
		c0-0.766,0.116-1.478,0.347-2.134c0.228-0.659,0.56-1.216,0.997-1.688c0.435-0.471,0.972-0.827,1.614-1.077
		c0.637-0.249,1.35-0.374,2.129-0.374c1.008,0,1.878,0.214,2.613,0.645c0.72,0.423,1.266,0.978,1.62,1.655
		c0.359,0.68,0.546,1.368,0.546,2.074c0,0.647-0.192,1.069-0.563,1.266C446.632,771.034,446.107,771.131,445.432,771.131
		 M440.359,769.656h4.7c-0.063-0.886-0.304-1.551-0.715-1.986c-0.421-0.443-0.962-0.66-1.642-0.66c-0.646,0-1.176,0.219-1.594,0.668
		C440.697,768.125,440.443,768.783,440.359,769.656"/>
	<path display="none" clip-path="url(#SVGID_4_)" fill="#B6E2EB" d="M451.111,766.678v0.312c0.486-0.602,0.994-1.042,1.524-1.324
		c0.519-0.284,1.119-0.427,1.783-0.427c0.795,0,1.535,0.207,2.207,0.616c0.671,0.414,1.198,1.017,1.588,1.808
		c0.39,0.795,0.586,1.729,0.586,2.813c0,0.796-0.112,1.532-0.336,2.201c-0.223,0.668-0.537,1.227-0.928,1.68
		c-0.395,0.45-0.856,0.803-1.391,1.046c-0.542,0.241-1.11,0.363-1.727,0.363c-0.739,0-1.365-0.147-1.866-0.447
		c-0.503-0.292-0.982-0.732-1.441-1.306v3.894c0,1.136-0.416,1.71-1.243,1.71c-0.49,0-0.81-0.147-0.973-0.44
		c-0.15-0.298-0.232-0.723-0.232-1.291V766.69c0-0.495,0.105-0.858,0.319-1.106c0.216-0.24,0.513-0.365,0.886-0.365
		c0.368,0,0.666,0.125,0.895,0.374C450.999,765.847,451.111,766.204,451.111,766.678 M456.195,770.445
		c0-0.685-0.106-1.272-0.314-1.763c-0.208-0.492-0.499-0.867-0.866-1.128c-0.367-0.262-0.782-0.396-1.231-0.396
		c-0.715,0-1.319,0.283-1.81,0.844c-0.492,0.565-0.739,1.395-0.739,2.493c0,1.025,0.244,1.833,0.735,2.405
		c0.488,0.573,1.086,0.858,1.813,0.858c0.429,0,0.83-0.126,1.196-0.372c0.371-0.253,0.665-0.627,0.885-1.127
		C456.085,771.759,456.195,771.153,456.195,770.445"/>
	<path display="none" clip-path="url(#SVGID_4_)" fill="#B6E2EB" d="M461.412,764.012c-0.363,0-0.669-0.114-0.923-0.335
		c-0.261-0.222-0.389-0.532-0.389-0.936c0-0.368,0.131-0.67,0.397-0.91c0.261-0.235,0.565-0.356,0.914-0.356
		c0.34,0,0.636,0.107,0.893,0.32c0.26,0.218,0.391,0.534,0.391,0.946c0,0.398-0.127,0.711-0.378,0.935
		C462.063,763.897,461.763,764.012,461.412,764.012 M462.695,766.69v7.503c0,0.516-0.123,0.907-0.369,1.172
		c-0.25,0.269-0.562,0.399-0.942,0.399c-0.38,0-0.684-0.134-0.927-0.405c-0.234-0.276-0.356-0.665-0.356-1.166v-7.429
		c0-0.51,0.122-0.894,0.356-1.153c0.243-0.266,0.547-0.393,0.927-0.393c0.381,0,0.692,0.127,0.942,0.393
		C462.572,765.871,462.695,766.232,462.695,766.69"/>
	<path display="none" clip-path="url(#SVGID_4_)" fill="#B6E2EB" d="M471.056,774.582l-2.284-3.767l-1.408,1.328v2.066
		c0,0.499-0.133,0.882-0.397,1.148c-0.257,0.273-0.565,0.407-0.905,0.407c-0.399,0-0.716-0.131-0.941-0.401
		c-0.226-0.263-0.343-0.655-0.343-1.174v-11.063c0-0.573,0.114-1.012,0.331-1.314c0.222-0.304,0.545-0.452,0.953-0.452
		c0.398,0,0.713,0.138,0.948,0.411c0.234,0.271,0.354,0.674,0.354,1.202v6.293l2.916-3.062c0.362-0.376,0.632-0.642,0.827-0.778
		c0.188-0.139,0.419-0.208,0.688-0.208c0.326,0,0.595,0.103,0.816,0.308c0.211,0.206,0.32,0.466,0.32,0.774
		c0,0.379-0.354,0.888-1.056,1.521l-1.377,1.264l2.66,4.182c0.193,0.314,0.338,0.544,0.423,0.707c0.084,0.159,0.13,0.319,0.13,0.461
		c0,0.414-0.113,0.735-0.341,0.976c-0.224,0.236-0.522,0.354-0.885,0.354c-0.317,0-0.564-0.082-0.734-0.256
		C471.582,775.337,471.345,775.025,471.056,774.582"/>
	<path display="none" clip-path="url(#SVGID_4_)" fill="#B6E2EB" d="M476.69,775.766c-0.392,0-0.728-0.126-1.014-0.382
		c-0.284-0.249-0.428-0.604-0.428-1.063c0-0.386,0.137-0.719,0.41-0.996c0.273-0.279,0.606-0.418,1.008-0.418
		c0.396,0,0.735,0.139,1.021,0.412c0.279,0.274,0.423,0.612,0.423,1.002c0,0.452-0.144,0.807-0.423,1.059
		C477.402,775.64,477.07,775.766,476.69,775.766"/>
	<path display="none" clip-path="url(#SVGID_4_)" fill="#B6E2EB" d="M489.589,772.556c0,0.319-0.097,0.668-0.291,1.033
		c-0.19,0.37-0.487,0.719-0.886,1.051c-0.394,0.332-0.891,0.602-1.495,0.804c-0.6,0.202-1.279,0.306-2.029,0.306
		c-1.607,0-2.859-0.469-3.759-1.4c-0.895-0.937-1.346-2.189-1.346-3.761c0-1.066,0.204-2.006,0.62-2.823
		c0.407-0.815,1.003-1.447,1.781-1.895c0.778-0.448,1.716-0.67,2.794-0.67c0.673,0,1.288,0.098,1.852,0.295
		c0.562,0.196,1.032,0.452,1.425,0.759c0.388,0.315,0.687,0.645,0.891,0.992c0.207,0.353,0.307,0.681,0.307,0.988
		c0,0.307-0.113,0.571-0.342,0.787c-0.236,0.215-0.516,0.323-0.839,0.323c-0.219,0-0.398-0.057-0.541-0.165
		c-0.145-0.112-0.305-0.29-0.479-0.543c-0.316-0.478-0.646-0.842-0.996-1.078c-0.343-0.243-0.779-0.362-1.313-0.362
		c-0.762,0-1.384,0.297-1.854,0.896c-0.468,0.597-0.702,1.421-0.702,2.454c0,0.488,0.062,0.94,0.183,1.349
		c0.117,0.406,0.291,0.756,0.52,1.044c0.23,0.287,0.504,0.505,0.826,0.653c0.324,0.153,0.682,0.227,1.064,0.227
		c0.521,0,0.966-0.12,1.337-0.361c0.376-0.241,0.702-0.606,0.985-1.102c0.158-0.291,0.327-0.519,0.51-0.685
		c0.182-0.163,0.409-0.249,0.675-0.249c0.317,0,0.581,0.123,0.787,0.362C489.483,772.026,489.589,772.284,489.589,772.556"/>
	<path display="none" clip-path="url(#SVGID_4_)" fill="#B6E2EB" d="M500.78,770.495c0,0.77-0.122,1.483-0.356,2.139
		c-0.247,0.652-0.592,1.213-1.05,1.678c-0.455,0.469-1.002,0.828-1.632,1.08c-0.639,0.248-1.349,0.375-2.138,0.375
		c-0.785,0-1.493-0.127-2.121-0.382c-0.623-0.249-1.171-0.615-1.626-1.082c-0.461-0.477-0.81-1.035-1.052-1.677
		c-0.229-0.645-0.352-1.355-0.352-2.131c0-0.786,0.124-1.507,0.359-2.158c0.242-0.655,0.589-1.212,1.039-1.673
		c0.45-0.462,0.992-0.818,1.631-1.07c0.643-0.249,1.349-0.374,2.121-0.374c0.784,0,1.498,0.125,2.138,0.381
		c0.638,0.251,1.183,0.615,1.644,1.079c0.458,0.475,0.804,1.03,1.04,1.672C500.659,769.004,500.78,769.713,500.78,770.495
		 M498.176,770.495c0-1.06-0.233-1.882-0.697-2.47c-0.463-0.596-1.09-0.888-1.874-0.888c-0.509,0-0.955,0.132-1.344,0.394
		c-0.387,0.263-0.681,0.649-0.89,1.164s-0.314,1.113-0.314,1.8c0,0.679,0.103,1.267,0.31,1.772c0.208,0.511,0.501,0.898,0.885,1.166
		c0.386,0.268,0.835,0.405,1.354,0.405c0.784,0,1.411-0.296,1.874-0.893C497.942,772.355,498.176,771.536,498.176,770.495"/>
	<path display="none" clip-path="url(#SVGID_4_)" fill="#B6E2EB" d="M510.672,770.686v3.445c0,0.547-0.12,0.951-0.369,1.229
		c-0.25,0.271-0.571,0.408-0.979,0.408c-0.392,0-0.714-0.137-0.951-0.408c-0.247-0.277-0.372-0.682-0.372-1.229V770
		c0-0.653-0.02-1.162-0.063-1.523c-0.046-0.354-0.168-0.655-0.363-0.884c-0.196-0.234-0.508-0.351-0.93-0.351
		c-0.852,0-1.408,0.29-1.677,0.88c-0.269,0.577-0.406,1.414-0.406,2.507v3.502c0,0.538-0.123,0.947-0.362,1.225
		c-0.249,0.272-0.566,0.412-0.965,0.412c-0.395,0-0.716-0.14-0.966-0.412c-0.252-0.277-0.376-0.687-0.376-1.225v-7.419
		c0-0.489,0.11-0.859,0.335-1.11c0.229-0.258,0.525-0.383,0.889-0.383c0.357,0,0.652,0.123,0.893,0.356
		c0.235,0.238,0.354,0.565,0.354,0.984v0.244c0.454-0.534,0.936-0.931,1.445-1.181c0.516-0.259,1.082-0.385,1.713-0.385
		c0.65,0,1.21,0.131,1.677,0.389c0.47,0.261,0.854,0.656,1.161,1.177c0.439-0.527,0.909-0.923,1.41-1.181
		c0.5-0.256,1.052-0.385,1.662-0.385c0.706,0,1.32,0.142,1.834,0.419c0.51,0.278,0.892,0.679,1.146,1.195
		c0.222,0.473,0.33,1.21,0.33,2.217v5.062c0,0.547-0.122,0.951-0.367,1.229c-0.246,0.271-0.574,0.408-0.979,0.408
		c-0.396,0-0.714-0.14-0.965-0.412c-0.25-0.277-0.376-0.687-0.376-1.225v-4.36c0-0.56-0.024-1.003-0.07-1.339
		c-0.046-0.337-0.176-0.619-0.382-0.847c-0.212-0.227-0.531-0.343-0.953-0.343c-0.342,0-0.667,0.105-0.974,0.307
		c-0.308,0.198-0.548,0.478-0.722,0.813C510.771,768.8,510.672,769.575,510.672,770.686"/>
	<path display="none" clip-path="url(#SVGID_4_)" fill="#B6E2EB" d="M389.967,769.867c-0.002-0.006-0.002-0.011-0.002-0.019
		C389.965,769.856,389.965,769.861,389.967,769.867"/>
	<path display="none" clip-path="url(#SVGID_4_)" fill="#B6E2EB" d="M390.098,770.695h0.003c-0.05-0.235-0.088-0.471-0.119-0.701
		C390.013,770.227,390.051,770.463,390.098,770.695"/>
	<path display="none" clip-path="url(#SVGID_4_)" fill="#B6E2EB" d="M390.956,773.103c-0.006-0.011-0.011-0.021-0.017-0.033
		C390.945,773.081,390.95,773.092,390.956,773.103"/>
	<path display="none" clip-path="url(#SVGID_4_)" fill="#B6E2EB" d="M390.874,772.942c-0.022-0.045-0.044-0.091-0.065-0.135
		C390.83,772.854,390.852,772.897,390.874,772.942"/>
	<path display="none" clip-path="url(#SVGID_4_)" fill="#B6E2EB" d="M390.339,771.623c0.127,0.399,0.28,0.787,0.457,1.157
		c-0.18-0.378-0.33-0.766-0.453-1.157H390.339z"/>
	<path display="none" clip-path="url(#SVGID_4_)" fill="#B6E2EB" d="M400.004,759.931c0.502,0,0.871,0.039,1.296,0.11l0.119-0.762
		c0,0-1.171-0.361-2.709-0.235l-0.122-0.415c0.479-0.1,0.838-0.525,0.838-1.034c0-0.581-0.474-1.054-1.057-1.054
		s-1.055,0.473-1.055,1.054c0,0.509,0.358,0.935,0.836,1.034l0.133,0.463c-1.634,0.226-2.935,0.862-2.935,0.862l0.231,0.706
		c0.988-0.33,1.846-0.53,2.624-0.614C398.963,759.965,399.538,759.931,400.004,759.931"/>
	<path display="none" clip-path="url(#SVGID_4_)" fill="#B6E2EB" d="M390.937,763.789l0.006-0.009
		c0.038-0.05,0.076-0.097,0.113-0.142l-0.313-0.226l-0.488-0.356c-0.027,0.038-0.795,0.744-1.401,2.047
		c-0.025-0.041-0.056-0.081-0.09-0.119c-0.181-0.198-0.435-0.3-0.758-0.294h-0.015c-0.2,0-0.337-0.065-0.427-0.146
		c0.09-0.113,0.144-0.256,0.144-0.413c0-0.368-0.3-0.669-0.67-0.669c-0.369,0-0.668,0.301-0.668,0.669
		c0,0.37,0.299,0.669,0.668,0.669c0.058,0,0.113-0.01,0.167-0.021c0.165,0.184,0.425,0.342,0.808,0.334
		c0.197-0.002,0.341,0.049,0.437,0.155c0.111,0.122,0.149,0.296,0.16,0.428c-0.001,0.002-0.001,0.005-0.003,0.005
		c-0.436,1.19-0.311,2.67-0.311,2.67l1.057,0.043c0.022-0.539,0.099-1.482,0.372-2.23
		C390.25,764.732,390.91,763.826,390.937,763.789"/>
	<path display="none" clip-path="url(#SVGID_4_)" fill="#B6E2EB" d="M409.203,760.814c-0.367,0-0.669,0.299-0.669,0.669
		c0,0.058,0.01,0.111,0.023,0.165c-0.183,0.166-0.342,0.428-0.336,0.811c0.003,0.197-0.048,0.339-0.155,0.436
		c-0.085,0.075-0.19,0.115-0.296,0.142c-0.787-1.104-1.756-1.776-1.756-1.776l-0.758,0.814c0.573,0.521,1.159,1.175,1.728,1.99
		c0.395,0.563,0.799,1.289,1.137,2.015l1.023-0.487c0,0-0.467-1.155-1.126-2.19c0.115-0.04,0.23-0.104,0.332-0.192
		c0.2-0.181,0.298-0.437,0.292-0.758c-0.001-0.208,0.067-0.35,0.149-0.442c0.113,0.087,0.257,0.144,0.411,0.144
		c0.371,0,0.671-0.301,0.671-0.669C409.874,761.113,409.574,760.814,409.203,760.814"/>
	<path display="none" clip-path="url(#SVGID_4_)" fill="#B6E2EB" d="M406.547,770.016c-1.409,0.688-3.729,1.595-6.781,2.021
		c-1.198,0.166-2.36,0.227-3.429,0.227c-1.39,0-2.619-0.103-3.562-0.223c-1.076-0.135-1.917-0.301-2.432-0.417
		c0.123,0.391,0.273,0.78,0.454,1.158c0.003,0.009,0.007,0.02,0.012,0.026c0.022,0.045,0.043,0.091,0.066,0.135
		c0.021,0.044,0.043,0.087,0.065,0.127c0.006,0.011,0.011,0.022,0.017,0.033c0.302,0.569,0.666,1.095,1.08,1.549
		c1.44,1.575,2.907,1.824,2.921,1.826l0.023,0.003l0.022,0.008c0.013,0.005,1.314,0.424,3.291,0.424
		c1.945,0,3.855-0.392,5.674-1.166c1.347-0.69,2.622-1.737,3.254-2.67c0.487-0.723,0.841-1.494,1.05-2.294
		c0.111-0.426,0.199-1.108,0.146-1.825C408.022,769.223,407.396,769.604,406.547,770.016"/>
	<path display="none" clip-path="url(#SVGID_4_)" fill="#B6E2EB" d="M391.389,764.122c-0.041,0.061-0.652,0.925-1.135,2.253
		c-0.362,0.995-0.346,2.444-0.346,2.46v0.003c0,0.341,0.019,0.678,0.057,1.012c0,0.008,0,0.013,0.002,0.017
		c0.004,0.043,0.011,0.084,0.015,0.127c0.03,0.232,0.069,0.466,0.119,0.703c0.7,0.177,4.878,1.152,9.548,0.502
		c2.927-0.408,5.149-1.272,6.5-1.927c1.12-0.544,1.842-1.036,2.119-1.239c-0.276-1.028-1.042-2.64-1.742-3.646
		c-2.006-2.865-4.167-3.602-5.277-3.783c-0.424-0.07-0.763-0.11-1.244-0.11c-0.447,0-1.002,0.037-1.743,0.115
		c-0.743,0.077-1.572,0.271-2.532,0.595c-1.348,0.452-2.567,1.16-3.527,2.048l-0.033,0.031
		C392.027,763.412,391.73,763.688,391.389,764.122 M403.659,763.455c0.961,0,1.743,0.782,1.743,1.743
		c0,0.962-0.782,1.745-1.743,1.745c-0.962,0-1.742-0.783-1.742-1.745C401.917,764.237,402.697,763.455,403.659,763.455
		 M395.417,763.387c1.557,0,2.817,1.262,2.817,2.816c0,1.557-1.26,2.815-2.817,2.815c-1.555,0-2.816-1.259-2.816-2.815
		C392.601,764.648,393.862,763.387,395.417,763.387"/>
</g>
</svg>
